<svg width="78" height="78" fill="none" xmlns="http://www.w3.org/2000/svg"><path d="m35.823 53.854-1.284 1.284a1.135 1.135 0 0 0 1.605 1.605l1.284-1.284a1.135 1.135 0 0 0-1.605-1.605Zm-8.81-7.528a1.137 1.137 0 0 0-1.21 1.055 4.44 4.44 0 0 0 4.735 4.733 1.135 1.135 0 0 0-.156-2.264 2.173 2.173 0 0 1-1.684-.63 2.17 2.17 0 0 1-.63-1.684 1.135 1.135 0 0 0-1.054-1.21ZM75.429 2.49a7.085 7.085 0 0 0-10.007 0c-4.65 4.65-8.064 1.647-11.541 3.387a5.188 5.188 0 0 0-3.266-.867 1.135 1.135 0 0 0 .165 2.264 2.91 2.91 0 0 1 1.9.53c5.726 4.08 13.35 11.703 17.434 17.435a2.907 2.907 0 0 1-.319 3.753l-3.951 3.952c-.574-1.562-1.383-3.058-2.342-4.492l2.124-2.123a1.135 1.135 0 0 0-1.605-1.605l-1.867 1.867c-1.334-1.715-2.839-3.336-4.349-4.873l2.095-2.094a1.135 1.135 0 0 0-1.605-1.605L56.2 20.113c-1.536-1.51-3.157-3.014-4.872-4.348l1.867-1.867a1.135 1.135 0 1 0-1.605-1.605l-2.124 2.124c-1.433-.959-2.93-1.768-4.492-2.342l2.093-2.092a1.135 1.135 0 0 0-1.605-1.606L42.46 11.38a13.55 13.55 0 0 0-3.837-.167c-6.874.688-10.718 6.904-14.11 12.388-3.684 5.957-4.347 6.748-10.43 10.441-4.103 2.49-8.753 5.313-12.99 11.427-4.128 5.956 4.708 16.374 9.845 21.512 5.15 5.15 15.562 13.97 21.512 9.845a33.886 33.886 0 0 0 4.323-3.538 1.135 1.135 0 1 0-1.579-1.63 31.647 31.647 0 0 1-4.037 3.303c-3.936 2.727-12.487-3.459-18.614-9.585C6.416 59.249.23 50.698 2.957 46.762c3.963-5.717 8.393-8.407 12.302-10.78 6.451-3.916 7.345-4.98 11.184-11.187 1.319-2.133 2.713-4.384 4.318-6.317 6.663 1.61 10.906 6.36 11.977 13.445 1.305 8.636 6.106 16.976 10.93 18.986.075.032.15.06.225.089-6.836 4.246-7.804 4.82-11.958 11.66-1.006 1.658-2.046 3.372-3.336 5.105a1.135 1.135 0 1 0 1.82 1.355c1.355-1.819 2.423-3.579 3.457-5.281 3.7-6.097 4.502-6.759 10.44-10.432 6.217-3.844 13.956-8.584 12.222-17.946l4.862-4.861a5.17 5.17 0 0 0 .64-6.56c1.745-3.486-1.268-6.885 3.387-11.54a7.073 7.073 0 0 0 0-10.008ZM57.5 48.638c-3.96 2.604-10.244-5.908-12.209-15.347C56.04 36.431 61.498 45.805 57.5 48.638Zm6.946-9.568c-.259 2.585-1.554 4.72-3.357 6.572-.174-3.55-2.879-7.08-5.562-9.392-2.094-1.803-5.614-4.167-10.672-5.429-1.365-7.423-5.951-12.271-12.346-14.217 1.797-1.685 3.862-2.885 6.339-3.132 6.358-.638 11.988 4.48 16.552 9.045 4.606 4.606 9.678 10.242 9.046 16.553Zm9.377-28.178c-4.493 4.493-3.2 8.298-3.48 10.893-3.879-4.878-9.076-10.127-14.21-14.21 2.595-.28 6.4 1.012 10.893-3.48a4.812 4.812 0 0 1 6.797 0 4.804 4.804 0 0 1 0 6.797ZM22.459 40.49l-1.284 1.283a1.135 1.135 0 0 0 1.605 1.606l1.284-1.284a1.135 1.135 0 0 0-1.605-1.605Z" fill="#2C2839"/></svg>