<svg width="96" height="57" fill="none" xmlns="http://www.w3.org/2000/svg"><path d="M80.018 19.858c-3.254-2.32-1.153-.325-14.359-14.641A14.094 14.094 0 0 0 55.324.689H17.913A14.065 14.065 0 0 0 3.948 13.105L.845 39.476a6.755 6.755 0 0 0 6.705 7.542h1.031a10.752 10.752 0 0 0 21.318 0h37.106a10.753 10.753 0 0 0 21.318 0c3.008 0 4.51.29 5.896-1.266a3.789 3.789 0 0 0 .934-2.952l-1.15-9.93a7.514 7.514 0 0 0-3.094-5.243l-6.922-4.937-3.97-2.832ZM47.77 3.52h7.556a11.255 11.255 0 0 1 8.252 3.615c11.999 13.008 11.23 12.199 11.79 12.722H65.022a14.256 14.256 0 0 1-12.628-7.604L47.77 3.52ZM19.24 53.526a7.924 7.924 0 1 1 7.924-7.923 7.932 7.932 0 0 1-7.924 7.923Zm58.424 0a7.923 7.923 0 1 1 7.924-7.923 7.932 7.932 0 0 1-7.924 7.923Zm11.6-23.595a4.68 4.68 0 0 1 1.926 3.264c1.244 10.732 1.308 10.233.915 10.673-.374.42-.523.319-3.778.319-1.687-12.732-19.723-12.088-21.325 0H55.507V25.382h-2.831v18.805H29.901c-1.694-12.789-19.741-12.04-21.324 0-1.045 0-2.635.17-3.958-1.316a3.922 3.922 0 0 1-.963-3.063l1.047-8.9h19.795v-2.831H5.037L6.76 13.436A11.232 11.232 0 0 1 17.913 3.52h26.653l5.327 10.057a17.081 17.081 0 0 0 15.13 9.111h14.088l10.152 7.242Z" fill="#2C2839"/></svg>