<svg width="76" height="59" fill="none" xmlns="http://www.w3.org/2000/svg"><path d="M74.803 19.792 38.486.423a1.21 1.21 0 0 0-1.14 0L1.03 19.793a1.209 1.209 0 0 0-.002 2.135l10.255 5.47V42.65h2.421V28.69l3.632 1.937v7.354c-2.083.541-3.632 2.42-3.632 4.67a4.79 4.79 0 0 0 1.015 2.932 24.723 24.723 0 0 0-1.015 6.949v3.435c0 .46.26.878.67 1.084l1.337.67a6.384 6.384 0 0 0 2.835.668c.98 0 1.96-.232 2.836-.67l1.337-.67c.41-.204.67-.623.67-1.082v-3.435c0-2.358-.354-4.689-1.015-6.949a4.797 4.797 0 0 0 1.015-2.932c0-2.25-1.549-4.129-3.632-4.67v-6.063l17.588 9.381a1.22 1.22 0 0 0 1.14 0l23.642-12.61v13.364a39.21 39.21 0 0 1-23.486 7.862h-1.45c-4.155 0-8.264-.66-12.213-1.962l-.757 2.3a41.37 41.37 0 0 0 12.97 2.083h1.448c9.17 0 18.204-3.1 25.442-8.73a1.21 1.21 0 0 0 .467-.955V27.397l10.255-5.47a1.21 1.21 0 0 0 0-2.135ZM20.968 55.218l-.67.334a3.986 3.986 0 0 1-3.504 0l-.669-.334v-2.687c0-1.82.222-3.622.659-5.382a4.803 4.803 0 0 0 1.762.343c.624 0 1.216-.128 1.763-.343.437 1.76.659 3.562.659 5.382v2.687Zm0-12.568a2.424 2.424 0 0 1-2.422 2.421 2.424 2.424 0 0 1-2.42-2.42 2.424 2.424 0 0 1 2.42-2.422 2.423 2.423 0 0 1 2.422 2.421Zm16.948-3.794-17.326-9.24 14.997-7.998c.69.28 1.474.453 2.328.453 2.716 0 4.843-1.596 4.843-3.632s-2.127-3.632-4.843-3.632c-2.715 0-4.842 1.596-4.842 3.632 0 .553.169 1.069.452 1.535l-15.508 8.27L4.171 20.86 37.916 2.863 71.66 20.86 37.916 38.856ZM35.494 18.44c0-.494.943-1.21 2.422-1.21 1.478 0 2.42.716 2.42 1.21s-.942 1.21-2.42 1.21c-1.479 0-2.422-.716-2.422-1.21Z" fill="#2C2839"/></svg>