<svg width="79" height="78" fill="none" xmlns="http://www.w3.org/2000/svg"><path d="M.331 44.808v25.987c0 3.874 3.228 7.102 7.264 7.102H33.58c2.26 0 4.197-1.13 5.65-2.744 1.291 1.614 3.39 2.744 5.65 2.744h25.986a7.233 7.233 0 0 0 7.263-7.263V44.808a7.233 7.233 0 0 0-7.263-7.263h-12.59c.807-1.13 1.13-2.583 1.13-4.035V7.684C59.246 3.65 56.017.421 51.982.421H26.157a7.233 7.233 0 0 0-7.264 7.263v25.987c0 1.453.485 2.905 1.13 4.035H7.595C3.559 37.545.33 40.773.33 44.808Zm40.352 0a3.996 3.996 0 0 1 4.036-4.035h25.986a3.996 3.996 0 0 1 4.036 4.035v25.987a3.996 3.996 0 0 1-4.035 4.035H44.719a3.996 3.996 0 0 1-4.035-4.035V44.808Zm-14.526-7.263a3.996 3.996 0 0 1-4.035-4.035V7.684a3.996 3.996 0 0 1 4.035-4.035h25.825a3.996 3.996 0 0 1 4.035 4.035v25.987a3.996 3.996 0 0 1-4.035 4.035H26.157v-.161ZM3.559 44.808a3.996 3.996 0 0 1 4.036-4.035H33.58a3.996 3.996 0 0 1 4.036 4.035v25.987a3.996 3.996 0 0 1-4.035 4.035H7.595c-2.26-.161-4.036-1.937-4.036-4.196V44.808Z" fill="#2C2839"/><path d="M30.676 29.798c-.323.807.161 1.775.968 2.098.162 0 .323.161.485.161.645 0 1.29-.484 1.452-1.13l1.937-5.326h6.78l1.936 5.327c.323.807 1.291 1.29 2.099.968.806-.323 1.29-1.291.968-2.098l-6.78-19.37c-.16-.645-.806-1.13-1.452-1.13-.646 0-1.291.485-1.453 1.13l-6.94 19.37Zm6.133-7.586 2.26-6.457 2.26 6.457h-4.52Zm-15.657 24.21H15.02c-.969 0-1.614.646-1.614 1.614v19.37c0 .968.645 1.614 1.614 1.614h6.133c3.551 0 6.457-2.906 6.457-6.457 0-1.937-.807-3.712-2.26-4.842 1.291-1.13 2.26-2.905 2.26-4.842 0-3.551-2.906-6.457-6.457-6.457Zm0 19.37h-4.519v-6.457h4.52a3.238 3.238 0 0 1 3.228 3.228 3.238 3.238 0 0 1-3.229 3.228Zm0-9.685h-4.519V49.65h4.52a3.238 3.238 0 0 1 3.228 3.228 3.238 3.238 0 0 1-3.229 3.228Zm37.932-6.457c2.098 0 4.196.808 5.65 2.422.645.645 1.613.645 2.259 0 .645-.646.645-1.614 0-2.26-2.099-2.098-5.004-3.39-8.07-3.39-3.067 0-5.811 1.13-7.91 3.39-2.098 2.26-3.39 5.004-3.39 7.909 0 3.067 1.13 5.81 3.39 7.909 2.26 2.26 5.165 3.228 7.91 3.228 2.905 0 5.81-1.13 8.07-3.228.645-.646.645-1.614 0-2.26-.646-.645-1.614-.645-2.26 0-3.067 3.228-8.232 3.228-11.46 0-1.453-1.452-2.421-3.55-2.421-5.649 0-2.098.807-4.197 2.421-5.65 1.614-1.613 3.551-2.42 5.81-2.42Z" fill="#2C2839"/></svg>