<svg width="78" height="59" fill="none" xmlns="http://www.w3.org/2000/svg"><path d="M38.766 43.835c-.478 0-.933-.213-1.24-.58-11.23-13.482-11.23-28.941 0-42.422.61-.736 1.866-.736 2.48 0 11.23 13.48 11.23 28.94 0 42.421a1.616 1.616 0 0 1-1.24.581Zm0-39.374c-8.635 11.402-8.635 23.766 0 35.168 8.635-11.402 8.635-23.766 0-35.168Zm0 53.901c-.478 0-.933-.213-1.24-.581-2.64-3.17-4.694-6.518-6.098-9.946a1.615 1.615 0 0 1 .881-2.105 1.615 1.615 0 0 1 2.105.881c1.05 2.57 2.508 5.098 4.349 7.538 1.836-2.44 3.296-4.968 4.348-7.538a1.613 1.613 0 0 1 2.105-.881 1.61 1.61 0 0 1 .881 2.105c-1.404 3.428-3.454 6.776-6.098 9.946-.3.368-.755.58-1.233.58Z" fill="#2C2839"/><path d="M38.795 43.803a1.615 1.615 0 0 1-.145-3.222c15.34-1.42 23.775-9.268 25.728-23.97-7.063.953-12.6 3.432-16.486 7.374a1.612 1.612 0 0 1-2.282.016 1.615 1.615 0 0 1-.02-2.282c4.794-4.862 11.68-7.735 20.47-8.545.468-.052.95.126 1.288.465.336.339.51.81.468 1.288-1.585 17.532-11.298 27.242-28.866 28.87-.055.006-.107.006-.155.006Z" fill="#2C2839"/><path d="M56.54 51.925c-6.262 0-12.528-2.379-18.756-7.144a1.614 1.614 0 1 1 1.96-2.563c11.286 8.632 22.274 8.645 33.557.026-5.123-3.9-10.253-6.037-15.273-6.366a1.617 1.617 0 0 1-1.504-1.718c.061-.887.746-1.565 1.717-1.504 6.221.407 12.506 3.215 18.679 8.342a1.611 1.611 0 0 1 .003 2.482c-6.757 5.63-13.571 8.445-20.383 8.445Z" fill="#2C2839"/><path d="M20.991 51.925c-6.811 0-13.626-2.815-20.382-8.444a1.607 1.607 0 0 1-.581-1.243c0-.478.213-.933.584-1.24 6.172-5.126 12.457-7.935 18.678-8.341.956-.068 1.66.616 1.718 1.504a1.615 1.615 0 0 1-1.505 1.717c-5.023.33-10.152 2.47-15.272 6.366 11.276 8.62 22.27 8.606 33.557-.026a1.615 1.615 0 0 1 2.263.3 1.617 1.617 0 0 1-.304 2.264c-6.227 4.761-12.49 7.143-18.756 7.143Z" fill="#2C2839"/><path d="M38.737 43.803c-.052 0-.1 0-.152-.007-17.568-1.627-27.281-11.34-28.866-28.87a1.612 1.612 0 0 1 .468-1.287 1.582 1.582 0 0 1 1.288-.465c8.79.807 15.673 3.683 20.47 8.545a1.615 1.615 0 0 1-2.302 2.266c-3.887-3.942-9.426-6.418-16.49-7.373 1.95 14.7 10.389 22.549 25.73 23.969a1.615 1.615 0 0 1-.145 3.222Z" fill="#2C2839"/></svg>