<svg width="252" height="19" fill="none" xmlns="http://www.w3.org/2000/svg"><path d="M9.62 4.976a19.856 19.856 0 0 1-.823-.253 5.163 5.163 0 0 1-.674-.274v-.61h4.888v.61a5.406 5.406 0 0 1-.61.253 37.26 37.26 0 0 1-.76.274v5.836l1.433-.295 3.54-5.541a26.822 26.822 0 0 1-.8-.253 14.9 14.9 0 0 0-.717-.274v-.61h4.635v.61a7.42 7.42 0 0 1-.78.295c-.267.085-.534.162-.8.232l-3.835 5.604c.365.464.752.983 1.159 1.56.407.575.829 1.172 1.264 1.79.45.618.913 1.236 1.39 1.854a31.28 31.28 0 0 0 1.518 1.77l.99.505v.527h-2.634l-.716-.527a25.345 25.345 0 0 1-2.276-3.118 96.048 96.048 0 0 0-2.148-3.413h-1.222v5.941c.238.07.47.148.695.232.239.07.463.162.674.274v.61H8.102v-.61c.422-.225.927-.393 1.517-.506v-6.13l-1.264.316a90.37 90.37 0 0 0-2.107 3.35 23.109 23.109 0 0 1-2.212 3.054l-.716.527H.686v-.527l.99-.505a36.606 36.606 0 0 0 1.517-1.749 71.145 71.145 0 0 0 2.676-3.497l1.074-1.538-3.96-5.794a12.941 12.941 0 0 1-1.496-.527v-.61h4.656v.61a9.862 9.862 0 0 1-.653.295 8.652 8.652 0 0 1-.78.232l3.56 5.667h1.35V4.976Zm19.07-1.138h4.656v.611c-.28.127-.555.232-.821.316a9.274 9.274 0 0 1-.78.211l-4.234 5.604c.35.464.75.983 1.2 1.56.464.575.941 1.172 1.433 1.79a272.33 272.33 0 0 1 1.538 1.854c.534.618 1.053 1.208 1.559 1.77l1.011.505v.527H31.62l-.717-.506a55.756 55.756 0 0 1-2.486-3.139 114.074 114.074 0 0 1-2.38-3.413h-1.033v5.941c.646.113 1.173.281 1.58.506v.61h-5.33v-.61a9.35 9.35 0 0 1 1.728-.506V4.976a5.278 5.278 0 0 1-1.728-.527v-.61h5.33v.61c-.224.099-.47.197-.737.295a11.64 11.64 0 0 1-.843.232v5.836l1.264-.295 3.94-5.541a10.87 10.87 0 0 1-.8-.232 5.46 5.46 0 0 1-.717-.295v-.61Zm15.29 9.292 3.56-4.319.527.4-2.233 3.772 2.36 3.982-.506.421-3.708-4.256Zm-4.087 0 4.488-4.36.547.42-2.95 3.814 3.077 3.982-.548.442-4.614-4.298Zm14.088 5.457h-4.677v-.611a8.013 8.013 0 0 1 1.517-.506l5.33-13.884h.611l5.33 13.884c.281.056.555.12.822.19.281.07.54.175.78.316v.61H58.3v-.61c.281-.112.57-.21.864-.295.295-.084.583-.154.864-.21l-1.433-3.856H53.56l-1.39 3.855a7.64 7.64 0 0 1 1.811.506v.61Zm0-6.068h4.256l-1.664-4.466-.4-1.812h-.043l-.526 1.854-1.623 4.424Zm10.316 6.068v-.611a5.53 5.53 0 0 1 1.727-.506V4.976c-.28-.056-.569-.126-.864-.21a15.644 15.644 0 0 1-.863-.317v-.61h2.233c.267 0 .52-.008.758-.022a266.83 266.83 0 0 1 1.644-.084c.309-.014.66-.021 1.053-.021.562 0 1.13.05 1.707.147.59.085 1.116.253 1.58.506a3.04 3.04 0 0 1 1.158 1.074c.295.45.443 1.04.443 1.77 0 .365-.056.73-.169 1.096a3.42 3.42 0 0 1-.526 1.032 3.454 3.454 0 0 1-.864.822 3.69 3.69 0 0 1-1.243.526v.085c.421.07.835.19 1.243.358.421.168.793.4 1.116.695.323.281.583.632.78 1.053.21.422.316.928.316 1.517 0 .759-.169 1.412-.506 1.96-.337.547-.78.997-1.327 1.348a5.827 5.827 0 0 1-1.833.78 9.493 9.493 0 0 1-2.086.231c-.491 0-1.046-.02-1.664-.063a26.369 26.369 0 0 0-1.79-.063h-2.023Zm5.625-.97c.505 0 .976-.076 1.411-.23.45-.155.829-.366 1.138-.633a3.06 3.06 0 0 0 .758-.99 2.96 2.96 0 0 0 .274-1.264c0-.562-.112-1.026-.337-1.39a2.235 2.235 0 0 0-.885-.886 3.584 3.584 0 0 0-1.285-.463 8.593 8.593 0 0 0-1.496-.127h-1.58v5.815c.197.056.429.099.696.127.28.028.716.042 1.306.042Zm-.948-7.078c.239 0 .52-.007.842-.021.338-.028.611-.056.822-.084a3.494 3.494 0 0 0 1.58-1.075 2.68 2.68 0 0 0 .632-1.77c0-.927-.28-1.622-.843-2.085-.547-.464-1.285-.696-2.212-.696-.435 0-.807.007-1.116.022a8.18 8.18 0 0 0-.759.063v5.646h1.054Zm13.615 8.048h-5.33v-.611a6.396 6.396 0 0 1 1.727-.506V4.976a25.17 25.17 0 0 1-.864-.232 8.924 8.924 0 0 1-.864-.295v-.61h5.33v.61a5.46 5.46 0 0 1-.716.295c-.252.085-.54.162-.864.232v9.143l-.231 1.58 1.011-1.664 6.173-8.553v-.506c-.323-.07-.632-.147-.927-.232a15 15 0 0 1-.78-.295v-.61h5.352v.61a6.25 6.25 0 0 1-.822.295c-.295.085-.597.162-.906.232v12.493c.66.113 1.236.281 1.728.506v.61h-5.352v-.61c.225-.098.471-.19.738-.274a5.29 5.29 0 0 1 .864-.232V8.347l.21-1.58-.927 1.58-6.257 8.659v.463c.323.056.625.127.906.211a5.3 5.3 0 0 1 .8.295v.61Zm14.31 0h-4.677v-.611a8.013 8.013 0 0 1 1.517-.506l5.33-13.884h.611l5.33 13.884c.281.056.555.12.822.19.281.07.541.175.78.316v.61h-5.394v-.61c.281-.112.569-.21.864-.295.295-.084.583-.154.864-.21l-1.433-3.856h-5.035l-1.39 3.855a7.64 7.64 0 0 1 1.811.506v.61Zm0-6.068h4.256L99.49 8.052l-.4-1.812h-.043l-.526 1.854-1.623 4.424Zm20.097 2.234h.548c.07.393.133.891.19 1.495.056.59.07 1.166.042 1.728a2.806 2.806 0 0 1-.759.421 8.452 8.452 0 0 1-.948.253c-.323.07-.66.12-1.011.148-.337.028-.66.042-.969.042-1.18 0-2.233-.148-3.16-.443-.927-.309-1.714-.772-2.36-1.39-.632-.618-1.124-1.405-1.475-2.36-.337-.969-.505-2.114-.505-3.434 0-1.376.189-2.542.568-3.497.38-.97.892-1.756 1.538-2.36a5.862 5.862 0 0 1 2.255-1.348 8.592 8.592 0 0 1 2.696-.421c.927 0 1.707.063 2.339.19a6.088 6.088 0 0 1 1.664.526c0 .225-.007.491-.021.8a26.9 26.9 0 0 1-.063.948c-.028.338-.063.668-.105.99-.042.324-.085.619-.127.886h-.548l-1.095-3.034c-.155-.085-.414-.14-.78-.169a13.195 13.195 0 0 0-1.053-.042c-.702 0-1.369.133-2.001.4a4.365 4.365 0 0 0-1.644 1.201c-.463.534-.835 1.215-1.116 2.044-.281.814-.422 1.776-.422 2.886 0 .997.127 1.903.38 2.718.252.8.618 1.489 1.095 2.065.478.561 1.06.997 1.749 1.306.688.295 1.467.442 2.338.442.464 0 .85-.035 1.159-.105.309-.07.513-.162.611-.274l.99-2.612Zm11.001 3.834h-5.92v-.611c.309-.112.618-.21.927-.295.323-.084.667-.154 1.032-.21V4.933h-3.224l-1.116 3.013h-.527a13.99 13.99 0 0 1-.105-.948l-.084-1.096-.043-1.096a25.627 25.627 0 0 1-.021-.969h12.241c0 .281-.007.597-.021.948-.014.352-.035.717-.063 1.096-.014.365-.036.73-.064 1.095a9.622 9.622 0 0 1-.084.97h-.548l-1.095-3.013h-3.224v12.535c.366.07.703.14 1.012.211.323.07.632.169.927.295v.61Zm7.924-1.117c.379.043.738.113 1.075.211.337.084.653.183.948.295v.61h-5.773v-.61c.281-.14.569-.246.864-.316.295-.07.583-.133.864-.19V4.976a7.823 7.823 0 0 1-.906-.21 14.263 14.263 0 0 1-.822-.317v-.61h1.896c.562 0 1.173-.029 1.833-.085.66-.056 1.292-.084 1.896-.084a8.85 8.85 0 0 1 2.023.232c.66.14 1.243.386 1.748.737.52.351.934.822 1.243 1.411.323.576.485 1.3.485 2.17 0 .83-.162 1.538-.485 2.128a4.188 4.188 0 0 1-1.306 1.454 5.61 5.61 0 0 1-1.833.843 8.911 8.911 0 0 1-2.128.253h-.8a65.07 65.07 0 0 1-.485-.043 3.57 3.57 0 0 1-.337-.042v4.656Zm1.433-12.704c-.337 0-.611.007-.822.021a4.267 4.267 0 0 0-.611.085v6.826c.07.028.169.049.295.063.141 0 .281.007.421.021.155.014.302.021.443.021h.337a4.97 4.97 0 0 0 1.391-.19c.435-.14.814-.358 1.137-.653.337-.295.604-.667.801-1.116.196-.45.295-.99.295-1.623 0-1.151-.33-2.015-.99-2.59-.647-.577-1.545-.865-2.697-.865Zm7.564 6.447c0-1.095.148-2.107.443-3.034.309-.94.744-1.748 1.306-2.423a5.924 5.924 0 0 1 2.107-1.6c.828-.38 1.77-.57 2.823-.57s1.994.19 2.823.57a5.73 5.73 0 0 1 2.086 1.6c.576.675 1.011 1.482 1.306 2.423.309.927.464 1.939.464 3.034a9.737 9.737 0 0 1-.464 3.055 7.066 7.066 0 0 1-1.306 2.423 5.833 5.833 0 0 1-2.086 1.58c-.829.38-1.77.569-2.823.569s-1.995-.19-2.823-.57a6.034 6.034 0 0 1-2.107-1.58c-.562-.687-.997-1.495-1.306-2.422a10.163 10.163 0 0 1-.443-3.055Zm2.255 0c0 .899.091 1.749.274 2.55.196.786.484 1.474.863 2.064.38.59.857 1.06 1.433 1.412.576.337 1.257.505 2.044.505.716 0 1.341-.168 1.875-.505a4.085 4.085 0 0 0 1.306-1.412c.351-.59.611-1.278.779-2.065.183-.8.274-1.65.274-2.549s-.091-1.742-.274-2.528c-.182-.8-.463-1.496-.842-2.086a4.239 4.239 0 0 0-1.433-1.39c-.576-.351-1.257-.527-2.044-.527-.772 0-1.432.176-1.98.527-.534.337-.969.8-1.306 1.39-.337.59-.583 1.285-.738 2.086-.154.787-.231 1.63-.231 2.528Zm18.165 7.374h-5.33v-.611a6.4 6.4 0 0 1 1.728-.506V4.976a24.57 24.57 0 0 1-.864-.232 8.937 8.937 0 0 1-.864-.295v-.61h5.33v.61a5.286 5.286 0 0 1-.716.295 8.397 8.397 0 0 1-.864.232v9.143l-.232 1.58 1.012-1.664 6.173-8.553v-.506c-.323-.07-.632-.147-.927-.232a15.597 15.597 0 0 1-.78-.295v-.61h5.351v.61a6.068 6.068 0 0 1-.821.295c-.295.085-.597.162-.906.232v12.493c.66.113 1.236.281 1.727.506v.61h-5.351v-.61a7.49 7.49 0 0 1 .737-.274 5.29 5.29 0 0 1 .864-.232V8.347l.211-1.58-.927 1.58-6.257 8.659v.463c.323.056.625.127.906.211a5.3 5.3 0 0 1 .8.295v.61Zm19.114 0h-5.92v-.611c.309-.112.618-.21.927-.295.323-.084.667-.154 1.033-.21V4.933h-3.224l-1.116 3.013h-.527a13.99 13.99 0 0 1-.105-.948l-.085-1.096-.042-1.096a25.627 25.627 0 0 1-.021-.969h12.241c0 .281-.007.597-.021.948a35.22 35.22 0 0 1-.064 1.096c-.014.365-.035.73-.063 1.095a9.622 9.622 0 0 1-.084.97h-.548l-1.095-3.013h-3.224v12.535c.365.07.702.14 1.011.211.323.07.632.169.927.295v.61Zm14.161-14.748a35.696 35.696 0 0 1-.084 1.707c-.028.562-.077 1.13-.148 1.706h-.547l-.864-2.317h-4.593v5.583h3.434l.822-1.56h.526c.085 1.391.085 2.81 0 4.257h-.526l-.822-1.602h-3.434v5.878h4.846l1.032-2.528h.527c.098.59.168 1.187.21 1.791.042.604.049 1.215.021 1.833h-10.386v-.611a6.956 6.956 0 0 1 1.727-.506V4.976a10.976 10.976 0 0 1-.863-.21 15.68 15.68 0 0 1-.864-.317v-.61h9.986Zm5.921 1.243c-.871-.14-1.587-.35-2.149-.632v-.61h11.082v.61c-.492.253-1.068.429-1.728.527V17.47c.66.113 1.236.281 1.728.506v.61h-5.352v-.61c.253-.112.513-.204.78-.274.267-.084.541-.161.822-.232V4.934h-3.94c-.056 2.205-.162 4.038-.316 5.499-.141 1.446-.323 2.647-.548 3.602-.225.941-.485 1.693-.779 2.255a9.057 9.057 0 0 1-.927 1.495 2.485 2.485 0 0 1-1.033.8c-.407.17-.8.254-1.18.254a2.968 2.968 0 0 1-.316-.464c-.098-.21-.196-.428-.295-.653a7.726 7.726 0 0 1-.21-.695 4.244 4.244 0 0 1-.106-.632l.316-.527 2.423.443c.211-.351.415-.815.611-1.39.211-.577.393-1.307.548-2.192.169-.899.302-1.973.4-3.223.113-1.25.169-2.725.169-4.425Zm20.147-1.243a35.71 35.71 0 0 1-.085 1.707 24.07 24.07 0 0 1-.147 1.706h-.548l-.864-2.317h-4.593v5.583h3.435l.821-1.56h.527c.084 1.391.084 2.81 0 4.257h-.527l-.821-1.602h-3.435v5.878h4.846l1.032-2.528h.527c.098.59.169 1.187.211 1.791.042.604.049 1.215.021 1.833h-10.387v-.611a6.978 6.978 0 0 1 1.728-.506V4.976a10.998 10.998 0 0 1-.864-.21 15.68 15.68 0 0 1-.864-.317v-.61h9.987Zm7.606 14.748h-5.33v-.611a6.383 6.383 0 0 1 1.727-.506V4.976a24.57 24.57 0 0 1-.864-.232 8.918 8.918 0 0 1-.863-.295v-.61h5.33v.61a5.394 5.394 0 0 1-.716.295 8.397 8.397 0 0 1-.864.232v9.143l-.232 1.58 1.011-1.664 6.173-8.553v-.506c-.323-.07-.632-.147-.927-.232a15.182 15.182 0 0 1-.779-.295v-.61h5.351v.61a6.133 6.133 0 0 1-.822.295c-.295.085-.597.162-.906.232v12.493c.661.113 1.236.281 1.728.506v.61h-5.351v-.61c.224-.098.47-.19.737-.274a5.29 5.29 0 0 1 .864-.232V8.347l.211-1.58-.927 1.58-6.258 8.659v.463c.323.056.625.127.906.211.295.084.562.183.801.295v.61Zm1.959-15.422c-1.292 0-2.24-.253-2.844-.758-.59-.52-.885-1.16-.885-1.918.155-.154.379-.266.674-.337.309-.07.611-.112.906-.126l.527.274v1.79c.197.099.435.176.716.232.295.043.604.064.927.064.239 0 .52-.021.843-.064a3.92 3.92 0 0 0 .801-.168V.299l.526-.274c.211-.014.464.028.759.126.309.085.554.197.737.337 0 .38-.07.73-.211 1.054a2.21 2.21 0 0 1-.653.843c-.295.238-.674.428-1.137.568-.464.14-1.026.211-1.686.211Zm9.297 14.221-.506-.421 2.36-3.877-2.255-3.876.527-.4 3.582 4.318-3.708 4.256Zm3.181.042-.548-.442 3.055-3.877-2.95-3.918.548-.422 4.488 4.361-4.593 4.298Z" fill="#fff"/></svg>