<svg width="199" height="146" fill="none" xmlns="http://www.w3.org/2000/svg"><path d="M196.085 149.55h-3.316v-12.663a6.038 6.038 0 0 0-6.031-6.031h-.2v-18.894a6.038 6.038 0 0 0-6.031-6.031h-46.936V88.244l8.494-8.493a2.916 2.916 0 0 0-4.123-4.122l-4.37 4.37V68.343a2.915 2.915 0 0 0-5.83 0V93.33C111.814 91.853 99.3 78.419 99.3 62.112c0-17.29 14.067-31.357 31.357-31.357s31.357 14.067 31.357 31.357a31.17 31.17 0 0 1-5.595 17.883 31.323 31.323 0 0 1-14.359 11.337 2.915 2.915 0 1 0 2.121 5.431 37.136 37.136 0 0 0 17.024-13.439c4.343-6.244 6.639-13.579 6.639-21.212 0-20.504-16.682-37.187-37.187-37.187S93.47 41.608 93.47 62.114c0 19.524 15.124 35.581 34.272 37.073v6.746H93.269a6.037 6.037 0 0 0-6.03 6.031v18.894h-.201a6.038 6.038 0 0 0-6.03 6.031v12.663h-6.865c-1.402-8.817-9.056-15.578-18.261-15.578-1.14 0-2.295.114-3.435.34-.795.158-1.755-.152-2.566-.829a24.574 24.574 0 0 0-3.547-2.469v-19.359c20.867-1.499 37.388-18.954 37.388-40.197 0-6.94-1.807-13.79-5.225-19.81-1.866-3.287-2.44-7.075-1.663-10.956a33.78 33.78 0 0 0 .614-8.31c-.424-8.551-4.132-16.619-10.44-22.718-6.31-6.1-14.498-9.53-23.058-9.66-9.198-.144-17.884 3.336-24.438 9.79-6.555 6.456-10.164 15.078-10.164 24.277 0 2.483.276 4.97.82 7.392.75 3.337.273 6.66-1.345 9.36-4.086 6.815-6.043 14.634-5.66 22.61.77 16.004 11.541 30.463 26.803 35.978a2.916 2.916 0 0 0 1.981-5.483C18.872 99.203 9.645 86.836 8.987 73.154c-.328-6.823 1.344-13.508 4.836-19.333 2.391-3.989 3.113-8.831 2.032-13.636a27.917 27.917 0 0 1-.678-6.113c0-7.625 2.992-14.772 8.425-20.123 5.433-5.35 12.62-8.226 20.259-8.115 14.585.223 27.04 12.262 27.764 26.838a27.952 27.952 0 0 1-.508 6.875c-1.043 5.202-.223 10.521 2.309 14.98 2.92 5.145 4.465 11 4.465 16.933 0 18.026-13.909 32.863-31.558 34.348V77.69a2.915 2.915 0 0 0-5.83 0v50.911a24.556 24.556 0 0 0-6.432-.86c-12.646 0-23.099 9.546-24.547 21.809H2.915a2.915 2.915 0 1 0 0 5.83h193.17a2.915 2.915 0 1 0 0-5.83Zm-9.146-12.663v12.663h-53.368v-12.863h53.167a.2.2 0 0 1 .201.2Zm-53.368-6.031v-6.632h47.136v6.632h-47.136Zm-40.302-19.095h87.238c.111 0 .201.09.201.201v6.432h-87.64v-6.432c0-.11.09-.201.2-.201Zm-.2 12.463h34.672v6.632H93.068v-6.632Zm-6.232 12.663c0-.11.09-.2.2-.2h40.704v12.863H86.837v-12.663Zm-33.257 3.144a11.868 11.868 0 0 1 2.3-.228c5.98 0 11.001 4.166 12.321 9.747H46.333v-11.441c2.148 1.71 4.775 2.413 7.247 1.922Zm-19.509-6.46c2.206 0 4.383.392 6.432 1.139v14.841h-25.1c1.405-9.04 9.241-15.98 18.668-15.98Z" fill="#fff" fill-opacity=".3"/></svg>