<svg width="80" height="114" fill="none" xmlns="http://www.w3.org/2000/svg"><path d="M8.496 30.273C-5.874 54.683 5.92 74.22 9.86 79.621 5.042 88.482 1.33 98.224.034 108.46a4.257 4.257 0 0 0 8.447 1.07c4.6-36.332 44.714-67.724 45.118-68.037a4.26 4.26 0 0 0 .767-5.972 4.256 4.256 0 0 0-5.97-.77c-1.168.901-19.806 15.477-33.715 36.804-3.712-6.365-8.836-19.995 1.153-36.963 6.219-10.571 15.905-12.251 27.122-14.2 8.233-1.425 17.356-3.01 25.556-8.547 2.632 12.592 6.664 40.787-5.407 57.384-6.02 8.278-15.58 12.683-28.414 13.09a4.253 4.253 0 0 0-4.12 4.385 4.258 4.258 0 0 0 4.253 4.125h.137c15.61-.492 27.398-6.08 35.045-16.607 18.247-25.124 5.7-69.285 5.157-71.155a4.256 4.256 0 0 0-7.082-1.834C60.527 8.706 51.287 10.31 41.5 12.006c-12.184 2.112-24.784 4.297-33.005 18.267Z" fill="#fff" fill-opacity=".3"/></svg>