<svg width="55" height="54" fill="none" xmlns="http://www.w3.org/2000/svg"><path d="M49.867 4.51A14.963 14.963 0 0 0 39.217.098a14.963 14.963 0 0 0-10.65 4.412L5.16 27.915c-5.872 5.873-5.872 15.428 0 21.3a14.963 14.963 0 0 0 10.65 4.412c4.024 0 7.806-1.567 10.65-4.411L49.868 25.81a14.963 14.963 0 0 0 4.41-10.65c0-4.023-1.566-7.806-4.41-10.65ZM24.233 46.988a11.833 11.833 0 0 1-8.422 3.488 11.833 11.833 0 0 1-8.423-3.488c-4.644-4.644-4.644-12.2 0-16.845l10.59-10.589L34.821 36.4l-10.59 10.589Zm23.406-23.406-10.59 10.589-16.844-16.845 10.59-10.589a11.874 11.874 0 0 1 8.421-3.483c3.05 0 6.1 1.161 8.423 3.483 4.644 4.645 4.644 12.2 0 16.845Z" fill="#2C2839"/></svg>