<svg width="45" height="44" fill="none" xmlns="http://www.w3.org/2000/svg"><path d="M.932 24.784v14.51c0 2.162 1.802 3.964 4.055 3.964h14.51c1.262 0 2.343-.63 3.154-1.532.721.902 1.893 1.532 3.154 1.532h14.51a4.039 4.039 0 0 0 4.056-4.055v-14.42a4.039 4.039 0 0 0-4.056-4.055h-7.03c.451-.63.631-1.442.631-2.253V4.055C33.826 1.802 32.024 0 29.771 0H15.35a4.039 4.039 0 0 0-4.055 4.055v14.51c0 .811.27 1.622.63 2.253H4.988C2.734 20.728.932 22.53.932 24.783Zm22.53 0c0-1.262.992-2.254 2.253-2.254h14.51c1.262 0 2.253.992 2.253 2.253v14.51a2.231 2.231 0 0 1-2.253 2.253h-14.51a2.231 2.231 0 0 1-2.253-2.253v-14.51Zm-8.11-4.056a2.231 2.231 0 0 1-2.254-2.253V4.055c0-1.261.992-2.253 2.253-2.253h14.42c1.261 0 2.253.992 2.253 2.253v14.51a2.231 2.231 0 0 1-2.253 2.253H15.35v-.09ZM2.733 24.783c0-1.261.992-2.253 2.253-2.253h14.51c1.262 0 2.253.992 2.253 2.253v14.51a2.231 2.231 0 0 1-2.253 2.253H4.987c-1.261-.09-2.253-1.081-2.253-2.343v-14.42Z" fill="#fff"/></svg>