<svg width="70" height="68" fill="none" xmlns="http://www.w3.org/2000/svg"><path d="M22.827 52.819a7.206 7.206 0 1 0 0 14.412 7.206 7.206 0 0 0 0-14.412Zm0 11.21a4.003 4.003 0 1 1 0-8.007 4.003 4.003 0 0 1 0 8.006Zm30.425-11.21a7.206 7.206 0 1 0 0 14.412 7.206 7.206 0 0 0 0-14.412Zm0 11.21a4.003 4.003 0 1 1 0-8.007 4.003 4.003 0 0 1 0 8.006Zm16.254-53.245a2.003 2.003 0 0 0-1.28-.64L16.1 9.422l-1.44-4.404A7.367 7.367 0 0 0 7.773.055H2.41a1.601 1.601 0 1 0 0 3.202h5.364a4.164 4.164 0 0 1 3.843 2.803l10.17 30.666-.802 1.841a7.686 7.686 0 0 0 .721 6.966 7.446 7.446 0 0 0 6.005 3.363h31.146a1.601 1.601 0 1 0 0-3.203H27.711a4.083 4.083 0 0 1-3.363-1.921 4.403 4.403 0 0 1-.4-3.844l.64-1.441 33.709-3.523a8.808 8.808 0 0 0 7.606-6.726l3.844-16.093a1.361 1.361 0 0 0-.24-1.361Zm-6.725 16.734a5.445 5.445 0 0 1-4.884 4.243l-33.309 3.443-7.446-22.579 49.081.72-3.442 14.173Z" fill="#2C2839"/></svg>