<svg width="69" height="49" fill="none" xmlns="http://www.w3.org/2000/svg"><path d="M59.606.506H9.026A8.616 8.616 0 0 0 .42 9.113v31.21a8.616 8.616 0 0 0 8.607 8.606h50.579a8.616 8.616 0 0 0 8.606-8.606V9.113A8.616 8.616 0 0 0 59.606.506ZM9.026 3.735h50.58a5.385 5.385 0 0 1 5.378 5.378v4.306H3.648V9.113a5.385 5.385 0 0 1 5.379-5.378ZM59.607 45.7H9.026a5.384 5.384 0 0 1-5.378-5.378V16.647h61.336v23.676a5.384 5.384 0 0 1-5.378 5.378Z" fill="#fff"/><path d="M24.632 36.017H11.719a1.614 1.614 0 0 0 0 3.228h12.913a1.614 1.614 0 0 0 0-3.228Z" fill="#fff"/></svg>