<svg width="171" height="168" fill="none" xmlns="http://www.w3.org/2000/svg"><path d="M.006 59.75c.086-1.967 1.182-5.613 7.557-7.933L177.53-9.985c8.712-3.17 18.381 1.337 21.552 10.05l4.601 12.64.001.002 10.352 28.44c3.17 8.714-1.338 18.382-10.052 21.554l-49.537 18.01a20.052 20.052 0 0 1-4.046 15.71l10.552 28.991a3.404 3.404 0 0 0 3.189 2.231h30.916v-10.089c0-5.563 4.526-10.09 10.089-10.09h6.726a3.364 3.364 0 0 1 3.364 3.363v53.81a3.364 3.364 0 0 1-3.364 3.363h-6.726c-5.563 0-10.089-4.526-10.089-10.089v-10.09h-30.916c-9.875 0-18.776-6.233-22.15-15.51l-10.331-28.382a20.032 20.032 0 0 1-14.473-9.673L59.3 115.302a16.751 16.751 0 0 1-5.734 1.015c-5.781-.001-11.274-3.005-14.35-8.021l-6.643 2.418a6.754 6.754 0 0 1-2.303.409 6.69 6.69 0 0 1-2.837-.634 6.675 6.675 0 0 1-3.475-3.792l-9.205-25.292c-1.12-3.076.158-6.447 2.87-8.066l-10.78-5.027C.692 65.445-.08 61.718.005 59.751Zm201.779 98.161a3.367 3.367 0 0 0 3.363 3.363h3.363v-47.083h-3.363a3.367 3.367 0 0 0-3.363 3.363v40.357Zm-53.472-27.9c2.412 6.63 8.773 11.084 15.83 11.084h30.916v-6.726h-30.916a10.15 10.15 0 0 1-9.509-6.656l-9.654-26.524a20.541 20.541 0 0 1-6.257 2.474l9.59 26.348Zm-14.254-32.628a13.568 13.568 0 0 0 5.065-.819 13.52 13.52 0 0 0 4.836-3.033c.122-.148.258-.286.406-.413a13.356 13.356 0 0 0 3.592-10.048l-24.281 8.827a13.342 13.342 0 0 0 10.382 5.486ZM21.072 79.105l9.2 25.288 6.325-2.302-8.726-23.973-1.786-.833-5.013 1.82ZM9.684 62.216l17.979 8.383.005.003 4.306 2.008c.002 0 .003 0 .005.002l5.047 2.354c5.924 2.762 16.12 3.207 22.263.97l97.282-35.346a3.364 3.364 0 0 1 2.296 6.322L61.588 82.258c-3.385 1.232-7.557 1.832-11.815 1.832-4.655 0-9.408-.721-13.341-2.117l7.635 20.978c1.902 5.228 7.704 7.932 12.932 6.029l144.687-52.6c5.228-1.902 7.933-7.703 6.03-12.931l-5.754-15.81a16.729 16.729 0 0 1-8.328 6.62l-3.161 1.15a3.364 3.364 0 0 1-2.3-6.32l3.161-1.15c5.227-1.904 7.932-7.703 6.03-12.93l-1.151-3.163v-.002l-3.45-9.479c-1.903-5.228-7.704-7.934-12.933-6.03L9.862 58.138c-2.159.786-2.958 1.605-3.12 1.906.136.316.86 1.2 2.942 2.172Z" fill="#fff" fill-opacity=".3"/></svg>