<?xml version="1.0" standalone="no"?>
<!DOCTYPE svg PUBLIC "-//W3C//DTD SVG 20010904//EN"
 "http://www.w3.org/TR/2001/REC-SVG-20010904/DTD/svg10.dtd">
<svg version="1.0" xmlns="http://www.w3.org/2000/svg"
 width="190.000000pt" height="190.000000pt" viewBox="0 0 190.000000 190.000000"
 preserveAspectRatio="xMidYMid meet">
<metadata>
Created by potrace 1.14, written by Peter Selinger 2001-2017
</metadata>
<g transform="translate(0.000000,190.000000) scale(0.100000,-0.100000)"
fill="#000000" stroke="none">
<path d="M20 1141 c0 -12 8 -17 45 -25 l30 -7 -33 21 c-37 23 -42 24 -42 11z"/>
<path d="M20 1060 c0 -22 3 -40 8 -40 4 0 52 10 106 22 l99 22 -89 17 c-127
25 -124 26 -124 -21z"/>
<path d="M269 1065 c-4 -3 -58 -19 -120 -36 -62 -16 -117 -33 -122 -38 -14
-14 15 -63 51 -88 100 -66 372 -131 709 -168 78 -8 145 -15 148 -15 3 0 5 55
5 123 l0 122 -181 23 c-153 19 -356 54 -459 78 -14 3 -28 3 -31 -1z"/>
<path d="M1195 815 c-29 -28 -31 -42 -9 -73 15 -22 74 -32 74 -12 0 5 -6 7
-14 4 -23 -9 -56 15 -56 39 0 30 18 47 48 47 13 0 20 4 17 10 -10 17 -35 11
-60 -15z"/>
<path d="M1283 780 c0 -36 2 -53 4 -37 5 34 30 35 43 2 5 -14 15 -25 21 -25 6
0 2 15 -10 36 -21 35 -21 38 -5 55 10 11 15 22 12 25 -3 3 -15 -6 -26 -20 -25
-33 -30 -32 -35 2 -2 15 -4 -2 -4 -38z"/>
<path d="M1422 824 c-41 -29 -22 -104 26 -104 38 0 52 17 52 62 0 27 -5 40
-19 48 -26 13 -33 13 -59 -6z m58 -19 c15 -18 5 -64 -15 -72 -9 -3 -22 0 -30
7 -15 13 -21 61 -8 73 11 12 40 8 53 -8z"/>
<path d="M1530 800 c0 -23 -5 -50 -10 -61 -8 -13 -7 -19 0 -19 13 0 30 43 30
76 0 15 6 24 15 24 11 0 15 -12 15 -50 0 -28 5 -50 10 -50 7 0 10 22 8 58 -3
56 -3 57 -35 60 -32 3 -33 3 -33 -38z"/>
<path d="M1627 810 c-10 -48 -8 -90 3 -90 6 0 10 19 11 43 l0 42 15 -39 c8
-22 16 -42 19 -44 2 -3 13 15 24 39 l20 44 0 -42 c1 -25 6 -43 12 -43 8 0 9
11 5 31 -3 17 -6 44 -6 60 0 42 -17 36 -31 -11 -14 -45 -24 -51 -32 -17 -4 12
-12 31 -20 41 -13 18 -14 17 -20 -14z"/>
<path d="M1785 828 c-15 -41 -35 -101 -35 -104 0 -14 19 0 23 16 7 26 33 26
47 -1 20 -36 23 -12 5 40 -17 53 -32 71 -40 49z m25 -50 c0 -5 -6 -8 -14 -8
-9 0 -12 7 -9 21 4 16 8 17 14 7 5 -7 9 -16 9 -20z"/>
</g>
</svg>
