<svg width="78" height="78" viewBox="0 0 78 78" fill="none" xmlns="http://www.w3.org/2000/svg">
<path d="M35.8232 53.8536L34.5393 55.1376C34.0961 55.581 34.0961 56.2995 34.5393 56.7427C34.9827 57.1859 35.7011 57.1858 36.1442 56.7427L37.4282 55.4587C37.8714 55.0153 37.8714 54.2969 37.4282 53.8536C36.9849 53.4106 36.2663 53.4106 35.8232 53.8536ZM27.0139 46.326C26.3898 46.2845 25.8469 46.7551 25.8039 47.3806C25.7159 48.6624 26.1856 49.9179 27.0929 50.8252C27.9836 51.7158 29.23 52.2029 30.5376 52.1141C31.1628 52.0711 31.635 51.5293 31.592 50.9039C31.549 50.2787 31.0076 49.8087 30.3819 49.8495C29.7554 49.892 29.141 49.6631 28.6981 49.2203C28.255 48.7771 28.0256 48.1633 28.0686 47.5361C28.1113 46.9107 27.6393 46.369 27.0139 46.326ZM75.4277 2.48985C72.6687 -0.268751 68.1796 -0.268751 65.4206 2.48985C60.7706 7.13982 57.3571 4.13653 53.8796 5.87704C52.9219 5.23331 51.7679 4.92537 50.6139 5.00981C49.9888 5.05566 49.5191 5.59936 49.5648 6.22462C49.6105 6.84958 50.154 7.31565 50.7794 7.27374C51.454 7.22395 52.1285 7.41295 52.6784 7.80473C58.4048 11.8841 66.0295 19.5071 70.1129 25.2393C70.941 26.4016 70.807 27.98 69.7945 28.9925L65.8429 32.9443C65.2693 31.382 64.4598 29.8861 63.5014 28.4524L65.6249 26.3289C66.0681 25.8856 66.0681 25.1671 65.6249 24.7239C65.1816 24.2808 64.463 24.2808 64.02 24.7239L62.1529 26.5909C60.8192 24.8761 59.3144 23.2548 57.8044 21.7185L59.8992 19.6237C60.3424 19.1803 60.3424 18.4619 59.8992 18.0187C59.4559 17.5756 58.7373 17.5756 58.2942 18.0187L56.1993 20.1134C54.663 18.6034 53.0416 17.0986 51.3268 15.7649L53.1939 13.8979C53.6372 13.4545 53.6372 12.736 53.1939 12.2928C52.7509 11.8499 52.0322 11.8496 51.589 12.2928L49.4652 14.4166C48.0316 13.4581 46.5356 12.6488 44.9734 12.0752L47.066 9.98255C47.5092 9.53918 47.5092 8.8207 47.066 8.37748C46.6228 7.93441 45.9042 7.93441 45.4611 8.37748L42.459 11.3796C41.22 11.15 39.9418 11.0815 38.6219 11.2134C31.7484 11.9013 27.9043 18.1169 24.5125 23.6008C20.8285 29.558 20.1646 30.3491 14.0813 34.042C9.97899 36.5321 5.32932 39.3547 1.09186 45.4686C-3.0362 51.4248 5.79978 61.8433 10.9372 66.9808C16.0872 72.1308 26.4988 80.9507 32.4492 76.8261C34.0325 75.7289 35.4466 74.5716 36.7723 73.2879C37.2227 72.8518 37.2343 72.1333 36.7982 71.6832C36.3624 71.2328 35.6438 71.2213 35.1934 71.6571C33.9574 72.8539 32.6369 73.9345 31.1562 74.9606C27.2201 77.6884 18.6688 71.5023 12.5421 65.3759C6.41551 59.2492 0.229173 50.6978 2.95735 46.7616C6.91987 41.0447 11.3503 38.3551 15.2592 35.9824C21.7105 32.066 22.6041 31.0022 26.443 24.7948C27.7617 22.6624 29.156 20.4109 30.7612 18.4779C37.4244 20.0872 41.667 24.8383 42.738 31.9233C44.0433 40.559 48.8443 48.8988 53.6679 50.9094C53.7432 50.9409 53.8183 50.9693 53.8933 50.9976C47.0572 55.2437 46.0886 55.8175 41.9354 62.6588C40.9294 64.316 39.8891 66.0298 38.5986 67.7626C38.2243 68.2651 38.3282 68.9763 38.8309 69.3505C39.3338 69.725 40.0447 69.6211 40.419 69.1182C41.7737 67.2994 42.8423 65.5392 43.8757 63.8368C47.5766 57.7402 48.3777 57.0783 54.3169 53.4054C60.533 49.5608 68.2724 44.8215 66.5384 35.4588L71.3995 30.5977C73.1655 28.8317 73.4248 26.095 72.0405 24.0385C73.785 20.5525 70.7719 17.1529 75.4275 12.4974C78.1931 9.73166 78.1934 5.25586 75.4277 2.48985ZM57.4998 48.6383C53.5408 51.2417 47.2556 42.7298 45.2915 33.2913C56.0394 36.4303 61.4974 45.8054 57.4998 48.6383ZM64.4461 39.0696C64.1873 41.6553 62.892 43.7909 61.0888 45.6425C60.9151 42.0911 58.2104 38.5618 55.5266 36.2504C53.4327 34.4469 49.9125 32.083 44.8549 30.8214C43.4895 23.398 38.9039 18.5499 32.5094 16.6042C34.3064 14.9187 36.3707 13.7194 38.8479 13.4716C45.2061 12.8342 50.8356 17.9519 55.4004 22.5173C60.006 27.1229 65.0777 32.7588 64.4461 39.0696ZM73.8227 10.8918C69.3298 15.3849 70.6233 19.1899 70.3437 21.7852C66.464 16.9073 61.2668 11.6577 56.1326 7.57411C58.7281 7.29447 62.5332 8.58736 67.0257 4.09492C68.8996 2.22095 71.9488 2.2211 73.8227 4.09477C75.7008 5.97313 75.7014 9.01348 73.8227 10.8918ZM22.4591 40.4895L21.1751 41.7735C20.7319 42.2168 20.7319 42.9353 21.1751 43.3787C21.6185 43.8219 22.337 43.8218 22.7802 43.3787L24.0642 42.0947C24.5074 41.6514 24.5074 40.9329 24.0642 40.4897C23.621 40.0464 22.9023 40.0464 22.4591 40.4895Z" fill="#2C2839" />
</svg>
