<svg width="79" height="78" viewBox="0 0 79 78" fill="none" xmlns="http://www.w3.org/2000/svg">
<path d="M0.331299 44.8083V70.7951C0.331299 74.6689 3.55947 77.8971 7.59469 77.8971H33.5815C35.8412 77.8971 37.7781 76.7672 39.2308 75.1531C40.5221 76.7672 42.6204 77.8971 44.8801 77.8971H70.8669C74.9021 77.8971 78.1303 74.6689 78.1303 70.6337V44.8083C78.1303 40.7731 74.9021 37.5449 70.8669 37.5449H58.277C59.084 36.415 59.4069 34.9624 59.4069 33.5097V7.68429C59.2455 3.64907 56.0173 0.420898 51.9821 0.420898H26.1567C22.1215 0.420898 18.8933 3.64907 18.8933 7.68429V33.6711C18.8933 35.1238 19.3775 36.5764 20.0232 37.7063H7.59469C3.55947 37.5449 0.331299 40.7731 0.331299 44.8083H0.331299ZM40.6835 44.8083C40.6835 42.5486 42.459 40.7731 44.7187 40.7731H70.7055C72.9652 40.7731 74.7407 42.5486 74.7407 44.8083V70.7951C74.7407 73.0548 72.9652 74.8303 70.7055 74.8303H44.7187C42.459 74.8303 40.6835 73.0548 40.6835 70.7951V44.8083ZM26.1567 37.5449C23.897 37.5449 22.1215 35.7694 22.1215 33.5097V7.68429C22.1215 5.42457 23.897 3.64907 26.1567 3.64907H51.9821C54.2418 3.64907 56.0173 5.42457 56.0173 7.68429V33.6711C56.0173 35.9308 54.2418 37.7063 51.9821 37.7063H26.1567V37.5449ZM3.55947 44.8083C3.55947 42.5486 5.33497 40.7731 7.59469 40.7731H33.5815C35.8412 40.7731 37.6167 42.5486 37.6167 44.8083V70.7951C37.6167 73.0548 35.8412 74.8303 33.5815 74.8303H7.59469C5.33497 74.6689 3.55947 72.8934 3.55947 70.6337V44.8083Z" fill="#fff" />
<path d="M30.6758 29.7977C30.353 30.6048 30.8372 31.5732 31.6443 31.896C31.8057 31.896 31.9671 32.0574 32.1285 32.0574C32.7741 32.0574 33.4198 31.5732 33.5812 30.9276L35.5181 25.6011H42.2972L44.2341 30.9276C44.557 31.7346 45.5254 32.2189 46.3325 31.896C47.1395 31.5732 47.6237 30.6048 47.3009 29.7977L40.5217 10.4287C40.3603 9.78305 39.7147 9.29883 39.0691 9.29883C38.4234 9.29883 37.7778 9.78305 37.6164 10.4287L30.6758 29.7977ZM36.8094 22.2115L39.0691 15.7552L41.3288 22.2115H36.8094Z" fill="#fff" />
<path d="M21.1524 46.4224H15.0189C14.0504 46.4224 13.4048 47.068 13.4048 48.0365V67.4055C13.4048 68.3739 14.0504 69.0196 15.0189 69.0196H21.1524C24.7034 69.0196 27.6088 66.1142 27.6088 62.5632C27.6088 60.6263 26.8017 58.8508 25.349 57.721C26.6403 56.5911 27.6088 54.8156 27.6088 52.8787C27.6088 49.3277 24.7034 46.4224 21.1524 46.4224ZM21.1524 65.7914H16.633V59.3351H21.1524C22.9279 59.3351 24.3806 60.7877 24.3806 62.5632C24.3806 64.3387 22.9279 65.7914 21.1524 65.7914ZM21.1524 56.1069H16.633V49.6505H21.1524C22.9279 49.6505 24.3806 51.1032 24.3806 52.8787C24.3806 54.6542 22.9279 56.1069 21.1524 56.1069Z" fill="#fff" />
<path d="M59.0838 49.6505C61.1821 49.6505 63.2804 50.4576 64.7331 52.0717C65.3787 52.7173 66.3472 52.7173 66.9928 52.0717C67.6385 51.426 67.6385 50.4576 66.9928 49.8119C64.8945 47.7136 61.9892 46.4224 58.9224 46.4224C55.8556 46.4224 53.1117 47.5522 51.0134 49.8119C48.915 52.0717 47.6238 54.8156 47.6238 57.721C47.6238 60.7877 48.7536 63.5317 51.0134 65.63C53.2731 67.8897 56.1784 68.8582 58.9224 68.8582C61.8277 68.8582 64.7331 67.7283 66.9928 65.63C67.6385 64.9844 67.6385 64.0159 66.9928 63.3703C66.3472 62.7246 65.3787 62.7246 64.7331 63.3703C61.6663 66.5984 56.5013 66.5984 53.2731 63.3703C51.8204 61.9176 50.852 59.8193 50.852 57.721C50.852 55.6227 51.659 53.5243 53.2731 52.0717C54.8872 50.4576 56.8241 49.6505 59.0838 49.6505Z" fill="#fff"/>
</svg>
