<svg width="55" height="54" viewBox="0 0 55 54" fill="none" xmlns="http://www.w3.org/2000/svg">
<path d="M49.8666 4.50958C47.0218 1.66479 43.2395 0.0981445 39.2165 0.0981445C35.1934 0.0981445 31.4112 1.66479 28.5664 4.50958L5.16047 27.9154C-0.71207 33.7879 -0.711965 43.3431 5.16047 49.2157C8.00515 52.0605 11.7875 53.6271 15.8106 53.6271C19.8336 53.6271 23.616 52.0605 26.4606 49.2157L49.8665 25.8099C52.7112 22.9651 54.2779 19.1828 54.2779 15.1598C54.2779 11.1367 52.7114 7.35438 49.8666 4.50958ZM24.2329 46.9878C21.9833 49.2374 18.9922 50.4764 15.8107 50.4764C12.6292 50.4764 9.63807 49.2374 7.38845 46.9878C2.74449 42.3437 2.74449 34.7873 7.38845 30.1433L17.9774 19.5543L34.8219 36.3988L24.2329 46.9878ZM47.6387 23.582L37.0497 34.171L20.2052 17.3264L30.7942 6.73746C33.1161 4.41548 36.1663 3.25444 39.2164 3.25444C42.2665 3.25444 45.3166 4.41548 47.6386 6.73746C52.2827 11.3815 52.2827 18.9379 47.6387 23.582Z" fill="#fff" />
</svg>
