<svg width="78" height="59" viewBox="0 0 78 59" fill="none" xmlns="http://www.w3.org/2000/svg">
<path d="M38.7659 43.8353C38.2881 43.8353 37.8329 43.6222 37.5262 43.2542C26.2955 29.7734 26.2955 14.3136 37.5262 0.83278C38.1364 0.0967557 39.3921 0.0967557 40.0055 0.83278C51.2363 14.3136 51.2363 29.7734 40.0055 43.2542C39.6988 43.6222 39.2436 43.8353 38.7659 43.8353ZM38.7659 4.46125C30.1305 15.8632 30.1305 28.2271 38.7659 39.629C47.4012 28.2271 47.4012 15.8632 38.7659 4.46125Z" fill="#2C2839" />
<path d="M38.7658 58.3619C38.288 58.3619 37.8329 58.1488 37.5262 57.7808C34.8855 54.6108 32.8324 51.2631 31.4282 47.8348C31.0924 47.0084 31.4863 46.0658 32.3095 45.73C33.1359 45.3943 34.0785 45.7882 34.4142 46.6113C35.4634 49.181 36.9225 51.7086 38.7626 54.1491C40.5994 51.7086 42.0585 49.181 43.1109 46.6113C43.4467 45.7882 44.3893 45.3911 45.2157 45.73C46.0421 46.0658 46.4359 47.0084 46.097 47.8348C44.6927 51.2631 42.6428 54.6108 39.999 57.7808C39.6987 58.1488 39.2436 58.3619 38.7658 58.3619Z" fill="#2C2839" />
<path d="M38.7949 43.8027C37.9717 43.8027 37.2679 43.1732 37.1905 42.3371C37.1098 41.4494 37.7619 40.6617 38.6496 40.581C53.9899 39.1606 62.4251 31.3129 64.3782 16.6119C57.3149 17.5642 51.7786 20.0434 47.8919 23.985C47.2592 24.6209 46.2358 24.6274 45.6096 24.0011C44.9736 23.3749 44.9672 22.3548 45.5902 21.7188C50.384 16.8572 57.2697 13.9841 66.0601 13.1739C66.5282 13.1222 67.0092 13.2998 67.3481 13.6387C67.6838 13.9777 67.8582 14.449 67.8162 14.9268C66.2312 32.4589 56.5176 42.1693 38.9498 43.7963C38.8949 43.8027 38.8433 43.8027 38.7949 43.8027Z" fill="#2C2839" />
<path d="M56.5402 51.9252C50.2775 51.9252 44.0116 49.546 37.7844 44.7812C37.0742 44.2421 36.9419 43.2285 37.481 42.5183C38.0265 41.8081 39.037 41.6789 39.7439 42.218C51.0297 50.8502 62.0184 50.8631 73.3009 42.2439C68.1778 38.3442 63.0482 36.2072 58.0284 35.8779C57.1406 35.8198 56.4691 35.0515 56.524 34.1605C56.5854 33.2728 57.2697 32.5949 58.2414 32.6562C64.4621 33.0629 70.7474 35.8715 76.9197 40.9978C77.2909 41.3045 77.504 41.7596 77.504 42.2374C77.504 42.7184 77.2941 43.1736 76.9229 43.4803C70.1663 49.1102 63.3516 51.9252 56.5402 51.9252Z" fill="#2C2839" />
<path d="M20.9914 51.9254C14.18 51.9254 7.36534 49.1104 0.608781 43.4805C0.237541 43.1738 0.02771 42.7187 0.02771 42.2377C0.02771 41.7599 0.240769 41.3047 0.612009 40.9981C6.78427 35.8717 13.0695 33.0632 19.2902 32.6565C20.2457 32.5887 20.9495 33.2731 21.0076 34.1608C21.0657 35.0486 20.3942 35.8201 19.5033 35.8782C14.4802 36.2075 9.35067 38.3477 4.23079 42.2441C15.5068 50.8633 26.5019 50.8504 37.7876 42.2183C38.4946 41.6792 39.5082 41.8083 40.0506 42.5185C40.5897 43.2255 40.4573 44.2391 39.7471 44.7815C33.52 49.543 27.2573 51.9254 20.9914 51.9254Z" fill="#2C2839" />
<path d="M38.7369 43.8027C38.6852 43.8027 38.6368 43.8027 38.5852 43.7963C21.0174 42.1693 11.3039 32.4557 9.71883 14.9268C9.67364 14.4522 9.84796 13.9777 10.1869 13.6387C10.5259 13.2998 10.994 13.1222 11.475 13.1739C20.2653 13.9809 27.1477 16.8572 31.9448 21.7188C32.5679 22.3548 32.5614 23.3749 31.9254 24.0011C31.2959 24.6274 30.2726 24.6209 29.6431 23.985C25.7564 20.0434 20.2169 17.5674 13.1536 16.6119C15.1034 31.3129 23.5419 39.1606 38.8822 40.581C39.7699 40.6617 40.4252 41.4494 40.3413 42.3371C40.2638 43.1732 39.5601 43.8027 38.7369 43.8027Z" fill="#2C2839" />
</svg>
