<svg width="96" height="57" viewBox="0 0 96 57" fill="none" xmlns="http://www.w3.org/2000/svg">
<path d="M80.0179 19.8578C76.7642 17.5372 78.8646 19.5329 65.6592 5.21687C64.3413 3.79103 62.7431 2.65287 60.9647 1.87379C59.1863 1.0947 57.2661 0.691494 55.3245 0.689453H17.9127C14.4687 0.690234 11.1446 1.95463 8.57071 4.24294C5.9968 6.53126 4.35195 9.68442 3.94798 13.1047L0.84476 39.4764C0.733796 40.4231 0.824434 41.3826 1.11071 42.2917C1.397 43.2009 1.87244 44.0392 2.5058 44.7516C3.13916 45.4639 3.91609 46.0341 4.78554 46.4248C5.655 46.8155 6.59728 47.0177 7.55047 47.0183H8.5811C8.92361 49.6026 10.1934 51.9745 12.1541 53.6925C14.1149 55.4105 16.633 56.3577 19.2399 56.3577C21.8469 56.3577 24.365 55.4105 26.3257 53.6925C28.2865 51.9745 29.5562 49.6026 29.8988 47.0183H67.0053C67.3478 49.6027 68.6176 51.9746 70.5783 53.6927C72.5391 55.4107 75.0573 56.3579 77.6643 56.3579C80.2713 56.3579 82.7895 55.4107 84.7503 53.6927C86.7111 51.9746 87.9809 49.6027 88.3234 47.0183C91.3306 47.0183 92.8331 47.3071 94.2191 45.7519C94.5739 45.3534 94.8404 44.8844 95.0014 44.3757C95.1623 43.867 95.214 43.33 95.153 42.8L94.0027 32.8705C93.8813 31.8289 93.5433 30.8243 93.0104 29.9213C92.4775 29.0182 91.7615 28.2367 90.9085 27.6269L83.9873 22.6902L80.0179 19.8578ZM47.7699 3.52086H55.3257C56.8761 3.52257 58.4095 3.84461 59.8296 4.46676C61.2497 5.08891 62.526 5.99776 63.5783 7.13632C75.5766 20.1443 74.8081 19.3349 75.3671 19.8578H65.0233C62.4252 19.8614 59.8755 19.1549 57.6498 17.8147C55.424 16.4745 53.6068 14.5515 52.3945 12.2536L47.7699 3.52086ZM19.2397 53.5263C17.6725 53.5262 16.1406 53.0615 14.8376 52.1908C13.5346 51.3201 12.519 50.0826 11.9193 48.6347C11.3196 47.1868 11.1628 45.5936 11.4685 44.0566C11.7743 42.5196 12.529 41.1077 13.6371 39.9996C14.7453 38.8915 16.1571 38.1369 17.6942 37.8311C19.2312 37.5254 20.8244 37.6823 22.2722 38.2821C23.7201 38.8818 24.9576 39.8974 25.8282 41.2004C26.6989 42.5035 27.1636 44.0354 27.1636 45.6026C27.1613 47.7034 26.3257 49.7175 24.8402 51.203C23.3547 52.6885 21.3405 53.524 19.2397 53.5263ZM77.6639 53.5263C76.0967 53.5263 74.5647 53.0616 73.2617 52.1909C71.9586 51.3202 70.943 50.0827 70.3433 48.6348C69.7436 47.187 69.5867 45.5938 69.8924 44.0568C70.1982 42.5197 70.9528 41.1078 72.061 39.9997C73.1691 38.8915 74.581 38.1369 76.118 37.8312C77.6551 37.5254 79.2482 37.6823 80.6961 38.2821C82.144 38.8818 83.3815 39.8974 84.2522 41.2004C85.1228 42.5035 85.5875 44.0354 85.5875 45.6026C85.5852 47.7034 84.7497 49.7174 83.2642 51.2029C81.7787 52.6884 79.7646 53.524 77.6639 53.5263ZM89.2634 29.9312C89.7945 30.3108 90.2403 30.7973 90.5722 31.3594C90.904 31.9216 91.1145 32.547 91.1902 33.1954C92.4336 43.9273 92.4983 43.4276 92.1054 43.8683C91.7312 44.2879 91.5819 44.1869 88.3267 44.1869C86.6399 31.4548 68.6038 32.0994 67.0022 44.1869H55.5069V25.3816H52.6755V44.1869H29.9021C28.2077 31.3984 10.161 32.1466 8.5778 44.1869C7.53254 44.1869 5.9427 44.3579 4.62044 42.871C4.25278 42.4573 3.97685 41.9704 3.81077 41.4424C3.64468 40.9145 3.59222 40.3573 3.65682 39.8076L4.70396 30.9081H24.4988V28.0767H5.03713L6.75956 13.4357C7.0822 10.7041 8.39591 8.1859 10.4516 6.35842C12.5073 4.53094 15.1621 3.52128 17.9127 3.52086H44.5664L49.8934 13.5785C51.3458 16.3315 53.5229 18.6354 56.1894 20.2411C58.856 21.8468 61.9106 22.6933 65.0233 22.6892H79.1112L89.2634 29.9312Z" fill="#fff"/>
</svg>
