<svg width="76" height="59" viewBox="0 0 76 59" fill="none" xmlns="http://www.w3.org/2000/svg">
<path d="M74.8026 19.7923L38.4856 0.423306C38.1285 0.233247 37.7036 0.233247 37.3465 0.423306L1.02954 19.7923C0.633684 20.003 0.387939 20.4133 0.387939 20.86C0.387939 21.3067 0.633684 21.7171 1.02833 21.9278L11.283 27.3971V42.6502H13.7042V28.6888L17.3358 30.6257V37.9798C15.2525 38.521 13.7042 40.3997 13.7042 42.6502C13.7042 43.7566 14.0915 44.765 14.7186 45.5822C14.0576 47.8423 13.7042 50.1726 13.7042 52.5308V55.9664C13.7042 56.4252 13.9632 56.8441 14.3736 57.0498L15.7113 57.7193C16.5877 58.1563 17.5671 58.3875 18.5464 58.3875C19.5258 58.3875 20.5051 58.1563 21.3816 57.7181L22.7192 57.0486C23.1296 56.8441 23.3887 56.4252 23.3887 55.9664V52.5308C23.3887 50.1726 23.0352 47.8423 22.3742 45.5822C23.0013 44.765 23.3887 43.7566 23.3887 42.6502C23.3887 40.3997 21.8404 38.521 19.757 37.9798V31.9173L37.3453 41.298C37.5244 41.3924 37.7193 41.4396 37.9155 41.4396C38.1116 41.4396 38.3065 41.3924 38.4856 41.298L62.1267 28.6888V42.0522C55.3936 47.1256 47.077 49.9136 38.6406 49.9136H37.1915C33.0357 49.9136 28.927 49.2538 24.9781 47.9525L24.2215 50.2525C28.4125 51.6338 32.7778 52.3347 37.1903 52.3347H38.6394C47.8082 52.3347 56.8426 49.2344 64.0806 43.6053C64.3748 43.3765 64.5479 43.0243 64.5479 42.6502V27.3971L74.8026 21.9278C75.1972 21.7171 75.443 21.3067 75.443 20.86C75.443 20.4133 75.1972 20.003 74.8026 19.7923ZM20.9675 55.2183L20.2981 55.5524C19.2146 56.0935 17.877 56.0935 16.7935 55.5524L16.1253 55.2183V52.5308C16.1253 50.7113 16.3468 48.9088 16.7838 47.1486C17.331 47.3641 17.923 47.4924 18.5464 47.4924C19.1699 47.4924 19.7618 47.3641 20.309 47.1486C20.746 48.9088 20.9675 50.7113 20.9675 52.5308V55.2183ZM20.9675 42.6502C20.9675 43.9854 19.8817 45.0713 18.5464 45.0713C17.2112 45.0713 16.1253 43.9854 16.1253 42.6502C16.1253 41.3149 17.2112 40.2291 18.5464 40.2291C19.8817 40.2291 20.9675 41.3149 20.9675 42.6502ZM37.9155 38.8563L20.5898 29.6161L35.5875 21.6179C36.2763 21.8987 37.0608 22.0706 37.9155 22.0706C40.6307 22.0706 42.7577 20.4751 42.7577 18.4389C42.7577 16.4027 40.6307 14.8072 37.9155 14.8072C35.2002 14.8072 33.0732 16.4027 33.0732 18.4389C33.0732 18.9921 33.2415 19.5078 33.5247 19.9739L18.0174 28.2445L4.17095 20.86L37.9155 2.86259L71.6599 20.86L37.9155 38.8563ZM35.4943 18.4389C35.4943 17.945 36.4374 17.2284 37.9155 17.2284C39.3936 17.2284 40.3366 17.945 40.3366 18.4389C40.3366 18.9328 39.3936 19.6495 37.9155 19.6495C36.4374 19.6495 35.4943 18.9328 35.4943 18.4389Z" fill="#2C2839" />
</svg>
