<svg width="69" height="49" viewBox="0 0 69 49" fill="none" xmlns="http://www.w3.org/2000/svg">
<path d="M59.6056 0.506348H9.02659C6.74485 0.508911 4.55729 1.41647 2.94385 3.02991C1.33041 4.64335 0.422851 6.8309 0.420288 9.11265V40.3226C0.422851 42.6044 1.33041 44.7919 2.94385 46.4054C4.55729 48.0188 6.74485 48.9263 9.02659 48.9289H59.6056C61.8873 48.9263 64.0749 48.0188 65.6883 46.4054C67.3018 44.7919 68.2093 42.6044 68.2119 40.3226V9.11265C68.2093 6.8309 67.3018 4.64335 65.6883 3.02991C64.0749 1.41647 61.8873 0.508911 59.6056 0.506348ZM9.02659 3.73452H59.6056C61.0314 3.73623 62.3984 4.3034 63.4066 5.31162C64.4148 6.31985 64.982 7.68681 64.9837 9.11265V13.419H3.64846V9.11265C3.65017 7.68681 4.21734 6.31985 5.22557 5.31162C6.23379 4.3034 7.60075 3.73623 9.02659 3.73452ZM59.6056 45.7007H9.02659C7.60075 45.699 6.23379 45.1319 5.22557 44.1236C4.21734 43.1154 3.65017 41.7485 3.64846 40.3226V16.6472H64.9837V40.3226C64.982 41.7485 64.4148 43.1154 63.4066 44.1236C62.3984 45.1319 61.0314 45.699 59.6056 45.7007Z" fill="#fff" />
<path d="M24.6317 36.0166H11.7189C11.2909 36.0166 10.8803 36.1867 10.5776 36.4894C10.2749 36.7921 10.1049 37.2026 10.1049 37.6307C10.1049 38.0588 10.2749 38.4694 10.5776 38.7721C10.8803 39.0748 11.2909 39.2449 11.7189 39.2449H24.6317C25.0597 39.2449 25.4703 39.0748 25.773 38.7721C26.0757 38.4694 26.2458 38.0588 26.2458 37.6307C26.2458 37.2026 26.0757 36.7921 25.773 36.4894C25.4703 36.1867 25.0597 36.0166 24.6317 36.0166Z" fill="#fff" />
</svg>
