<svg width="70" height="68" viewBox="0 0 70 68" fill="none" xmlns="http://www.w3.org/2000/svg">
<path d="M22.827 52.8188C18.8471 52.8188 15.621 56.0452 15.621 60.0249C15.621 64.0047 18.8473 67.2309 22.827 67.2309C26.8068 67.2309 30.033 64.0046 30.033 60.0249C30.0331 56.0452 26.8068 52.8188 22.827 52.8188ZM22.827 64.0283C20.616 64.0283 18.8237 62.236 18.8237 60.025C18.8237 57.814 20.616 56.0217 22.827 56.0217C25.038 56.0217 26.8303 57.814 26.8303 60.025C26.8304 62.236 25.038 64.0283 22.827 64.0283Z" fill="#2C2839" />
<path d="M53.2517 52.8188C49.2718 52.8188 46.0457 56.0452 46.0457 60.0249C46.0457 64.0047 49.272 67.2309 53.2517 67.2309C57.2314 67.2309 60.4577 64.0046 60.4577 60.0249C60.4577 56.0452 57.2315 52.8188 53.2517 52.8188ZM53.2517 64.0283C51.0407 64.0283 49.2484 62.236 49.2484 60.025C49.2484 57.814 51.0407 56.0217 53.2517 56.0217C55.4627 56.0217 57.255 57.814 57.255 60.025C57.2551 62.236 55.4627 64.0283 53.2517 64.0283Z" fill="#2C2839" />
<path d="M69.5061 10.7838C69.1726 10.4196 68.7164 10.1915 68.2251 10.1432L16.1013 9.42264L14.6601 5.01889C13.6447 2.07503 10.888 0.0876371 7.7742 0.0546875H2.4097C1.52527 0.0546875 0.80835 0.77161 0.80835 1.65604C0.80835 2.54047 1.52527 3.25739 2.4097 3.25739H7.7742C9.51532 3.29586 11.0485 4.41384 11.6175 6.05979L21.7861 36.7256L20.9855 38.5671C20.0925 40.8699 20.3606 43.4617 21.7061 45.533C23.0386 47.5673 25.2804 48.8227 27.7112 48.8958H58.8574C59.7419 48.8958 60.4588 48.1789 60.4588 47.2945C60.4588 46.41 59.7419 45.6931 58.8574 45.6931H27.711C26.3383 45.6588 25.0747 44.9367 24.3482 43.7715C23.6297 42.6205 23.4821 41.2026 23.9479 39.9282L24.5885 38.487L58.2968 34.964C61.9994 34.5561 65.0452 31.8632 65.9033 28.2382L69.7466 12.1447C69.9198 11.6813 69.8278 11.1601 69.5061 10.7838ZM62.7806 27.5178C62.2607 29.8512 60.2796 31.5724 57.8965 31.7614L24.5885 35.2043L17.1422 12.6253L66.2234 13.3459L62.7806 27.5178Z" fill="#2C2839" />
</svg>
