<svg width="45" height="44" viewBox="0 0 45 44" fill="none" xmlns="http://www.w3.org/2000/svg">
<path d="M0.931885 24.7835V39.2931C0.931885 41.456 2.73432 43.2584 4.98736 43.2584H19.497C20.7587 43.2584 21.8401 42.6276 22.6512 41.7264C23.3722 42.6276 24.5438 43.2584 25.8055 43.2584H40.3151C42.5681 43.2584 44.3706 41.456 44.3706 39.2029V24.7835C44.3706 22.5304 42.5681 20.728 40.3151 20.728H33.2856C33.7362 20.0971 33.9164 19.286 33.9164 18.475V4.05548C33.8263 1.80243 32.0239 0 29.7708 0H15.3514C13.0983 0 11.2959 1.80243 11.2959 4.05548V18.5651C11.2959 19.3762 11.5662 20.1873 11.9267 20.8181H4.98736C2.73432 20.728 0.931885 22.5304 0.931885 24.7835H0.931885ZM23.4623 24.7835C23.4623 23.5218 24.4537 22.5304 25.7154 22.5304H40.225C41.4867 22.5304 42.478 23.5218 42.478 24.7835V39.2931C42.478 40.5548 41.4867 41.5461 40.225 41.5461H25.7154C24.4537 41.5461 23.4623 40.5548 23.4623 39.2931V24.7835ZM15.3514 20.728C14.0897 20.728 13.0983 19.7367 13.0983 18.475V4.05548C13.0983 2.79377 14.0897 1.80243 15.3514 1.80243H29.7708C31.0325 1.80243 32.0239 2.79377 32.0239 4.05548V18.5651C32.0239 19.8268 31.0325 20.8181 29.7708 20.8181H15.3514V20.728ZM2.73432 24.7835C2.73432 23.5218 3.72566 22.5304 4.98736 22.5304H19.497C20.7587 22.5304 21.75 23.5218 21.75 24.7835V39.2931C21.75 40.5548 20.7587 41.5461 19.497 41.5461H4.98736C3.72566 41.456 2.73432 40.4647 2.73432 39.2029V24.7835Z" fill="#fff"/>
</svg>
