<svg width="252" height="19" viewBox="0 0 252 19" fill="none" xmlns="http://www.w3.org/2000/svg">
<path d="M9.61913 4.97599C9.32417 4.89172 9.05029 4.80744 8.79747 4.72317C8.54466 4.6389 8.31993 4.5476 8.1233 4.44929V3.83831H13.0111V4.44929C12.8425 4.53356 12.6389 4.61783 12.4001 4.7021C12.1754 4.78637 11.9226 4.87767 11.6417 4.97599V10.8118L13.0743 10.5169L16.6137 4.97599C16.3328 4.89172 16.0659 4.80744 15.8131 4.72317C15.5744 4.62485 15.3356 4.53356 15.0968 4.44929V3.83831H19.7318V4.44929C19.479 4.56165 19.2191 4.65997 18.9523 4.74424C18.6854 4.82851 18.4185 4.90576 18.1517 4.97599L14.3173 10.5801C14.6825 11.0436 15.0687 11.5633 15.476 12.1391C15.8834 12.715 16.3047 13.3119 16.7401 13.9299C17.1896 14.5479 17.6531 15.1659 18.1306 15.7839C18.6222 16.4019 19.1278 16.9918 19.6475 17.5536L20.6377 18.0592V18.5859H18.0042L17.2879 18.0592C16.4592 17.0901 15.7008 16.0508 15.0125 14.9412C14.3384 13.8175 13.6221 12.6799 12.8636 11.5281H11.6417V17.4693C11.8804 17.5396 12.1122 17.6168 12.3369 17.7011C12.5757 17.7713 12.8004 17.8626 13.0111 17.975V18.5859H8.10223V17.975C8.52359 17.7502 9.02922 17.5817 9.61913 17.4693V11.3385L8.35504 11.6546C7.59659 12.8063 6.89433 13.9229 6.24824 15.0044C5.60215 16.0718 4.86477 17.0901 4.0361 18.0592L3.31978 18.5859H0.686279V18.0592L1.67648 17.5536C2.19616 16.9918 2.70179 16.4089 3.19338 15.805C3.68496 15.201 4.15548 14.6041 4.60493 14.0142C5.05439 13.4243 5.47575 12.8554 5.86902 12.3077C6.26229 11.7458 6.62044 11.2332 6.94349 10.7697L2.9827 4.97599C2.40684 4.80744 1.90823 4.63188 1.48686 4.44929V3.83831H6.1429V4.44929C5.94627 4.5476 5.72856 4.64592 5.48979 4.74424C5.25102 4.82851 4.99118 4.90576 4.71027 4.97599L8.27077 10.6433H9.61913V4.97599ZM28.6913 3.83831H33.3473V4.44929C33.0664 4.57569 32.7925 4.68103 32.5257 4.76531C32.2588 4.84958 31.999 4.91981 31.7462 4.97599L27.5115 10.5801C27.8626 11.0436 28.2629 11.5633 28.7124 12.1391C29.1759 12.715 29.6534 13.3119 30.145 13.9299C30.6506 14.5339 31.1633 15.1518 31.683 15.7839C32.2167 16.4019 32.7364 16.9918 33.242 17.5536L34.2533 18.0592V18.5859H31.6197L30.9034 18.0803C30.0748 17.1112 29.2461 16.0648 28.4174 14.9412C27.6028 13.8175 26.8092 12.6799 26.0367 11.5281H25.0044V17.4693C25.6505 17.5817 26.1772 17.7502 26.5845 17.975V18.5859H21.2543V17.975C21.8161 17.7502 22.3919 17.5817 22.9819 17.4693V4.97599C22.3498 4.89172 21.774 4.71615 21.2543 4.44929V3.83831H26.5845V4.44929C26.3598 4.5476 26.114 4.64592 25.8471 4.74424C25.5802 4.82851 25.2993 4.90576 25.0044 4.97599V10.8118L26.2685 10.5169L30.2082 4.97599C29.9273 4.90576 29.6604 4.82851 29.4076 4.74424C29.1548 4.65997 28.916 4.56165 28.6913 4.44929V3.83831ZM43.9793 13.1293L47.5398 8.81037L48.0665 9.21066L45.8333 12.9818L48.1929 16.9637L47.6872 17.3851L43.9793 13.1293ZM39.8921 13.1293L44.3796 8.76823L44.9273 9.18959L41.9778 13.0029L45.0537 16.9848L44.506 17.4272L39.8921 13.1293ZM53.9803 18.5859H49.3032V17.975C49.8089 17.7502 50.3145 17.5817 50.8201 17.4693L56.1503 3.5855H56.7613L62.0915 17.4693C62.3724 17.5255 62.6463 17.5887 62.9132 17.6589C63.1941 17.7292 63.4539 17.8345 63.6927 17.975V18.5859H58.2993V17.975C58.5802 17.8626 58.8681 17.7643 59.1631 17.68C59.458 17.5957 59.746 17.5255 60.0269 17.4693L58.5942 13.6139H53.559L52.1685 17.4693C52.7584 17.5536 53.3623 17.7221 53.9803 17.975V18.5859ZM53.9803 12.5183H58.2361L56.5717 8.05192L56.1714 6.24007H56.1293L55.6026 8.09406L53.9803 12.5183ZM64.2956 18.5859V17.975C64.8574 17.7081 65.4333 17.5396 66.0232 17.4693V4.97599C65.7423 4.91981 65.4544 4.84958 65.1594 4.76531C64.8644 4.66699 64.5765 4.56165 64.2956 4.44929V3.83831H66.5288C66.7957 3.83831 67.0485 3.83129 67.2873 3.81725C67.5401 3.8032 67.7999 3.78916 68.0668 3.77511C68.3337 3.76106 68.6216 3.74702 68.9306 3.73297C69.2396 3.71893 69.5907 3.71191 69.984 3.71191C70.5458 3.71191 71.1146 3.76106 71.6905 3.85938C72.2804 3.94365 72.8071 4.1122 73.2706 4.36501C73.7481 4.61783 74.1344 4.97599 74.4293 5.43948C74.7243 5.88894 74.8718 6.47884 74.8718 7.2092C74.8718 7.57438 74.8156 7.93956 74.7032 8.30474C74.5909 8.66992 74.4153 9.01403 74.1765 9.33707C73.9518 9.64607 73.6639 9.91995 73.3127 10.1587C72.9616 10.3975 72.5473 10.5731 72.0697 10.6854V10.7697C72.4911 10.8399 72.9054 10.9593 73.3127 11.1279C73.7341 11.2964 74.1063 11.5281 74.4293 11.8231C74.7524 12.104 75.0122 12.4551 75.2089 12.8765C75.4195 13.2979 75.5249 13.8035 75.5249 14.3934C75.5249 15.1518 75.3563 15.805 75.0192 16.3527C74.6822 16.9005 74.2397 17.3499 73.692 17.7011C73.1582 18.0522 72.5473 18.3121 71.859 18.4806C71.1708 18.6351 70.4756 18.7123 69.7733 18.7123C69.2817 18.7123 68.7269 18.6913 68.1089 18.6491C67.4909 18.607 66.894 18.5859 66.3181 18.5859H64.2956ZM69.9208 17.6168C70.4264 17.6168 70.8969 17.5396 71.3323 17.3851C71.7818 17.2306 72.161 17.0199 72.47 16.753C72.7931 16.4721 73.0459 16.142 73.2285 15.7628C73.411 15.3696 73.5023 14.9482 73.5023 14.4987C73.5023 13.9369 73.39 13.4734 73.1653 13.1082C72.9546 12.729 72.6596 12.4341 72.2804 12.2234C71.9152 11.9987 71.4868 11.8442 70.9952 11.7599C70.5177 11.6756 70.0191 11.6335 69.4994 11.6335H67.9193V17.4483C68.1159 17.5044 68.3477 17.5466 68.6146 17.5747C68.8955 17.6028 69.3309 17.6168 69.9208 17.6168ZM68.9727 10.5379C69.2115 10.5379 69.4924 10.5309 69.8154 10.5169C70.1525 10.4888 70.4264 10.4607 70.6371 10.4326C71.2832 10.2079 71.8099 9.84973 72.2172 9.35814C72.6386 8.85251 72.8492 8.2626 72.8492 7.58842C72.8492 6.66143 72.5683 5.96619 72.0065 5.50269C71.4587 5.03919 70.7214 4.80744 69.7944 4.80744C69.359 4.80744 68.9868 4.81447 68.6778 4.82851C68.3688 4.84256 68.1159 4.86362 67.9193 4.89172V10.5379H68.9727ZM82.5876 18.5859H77.2574V17.975C77.8192 17.7221 78.3951 17.5536 78.985 17.4693V4.97599C78.7041 4.90576 78.4161 4.82851 78.1212 4.74424C77.8262 4.65997 77.5383 4.56165 77.2574 4.44929V3.83831H82.5876V4.44929C82.3629 4.56165 82.1241 4.65997 81.8713 4.74424C81.6185 4.82851 81.3305 4.90576 81.0075 4.97599V14.1195L80.7758 15.6996L81.787 14.0352L87.9599 5.48162V4.97599C87.6369 4.90576 87.3279 4.82851 87.033 4.74424C86.752 4.64592 86.4922 4.5476 86.2534 4.44929V3.83831H91.6047V4.44929C91.3519 4.56165 91.078 4.65997 90.7831 4.74424C90.4881 4.82851 90.1861 4.90576 89.8771 4.97599V17.4693C90.5373 17.5817 91.1131 17.7502 91.6047 17.975V18.5859H86.2534V17.975C86.4782 17.8766 86.724 17.7854 86.9908 17.7011C87.2577 17.6028 87.5456 17.5255 87.8546 17.4693V8.34687L88.0653 6.76677L87.1383 8.34687L80.8811 17.0058V17.4693C81.2041 17.5255 81.5061 17.5957 81.787 17.68C82.082 17.7643 82.3488 17.8626 82.5876 17.975V18.5859ZM96.8982 18.5859H92.2211V17.975C92.7268 17.7502 93.2324 17.5817 93.738 17.4693L99.0682 3.5855H99.6792L105.009 17.4693C105.29 17.5255 105.564 17.5887 105.831 17.6589C106.112 17.7292 106.372 17.8345 106.611 17.975V18.5859H101.217V17.975C101.498 17.8626 101.786 17.7643 102.081 17.68C102.376 17.5957 102.664 17.5255 102.945 17.4693L101.512 13.6139H96.4769L95.0864 17.4693C95.6763 17.5536 96.2802 17.7221 96.8982 17.975V18.5859ZM96.8982 12.5183H101.154L99.4896 8.05192L99.0893 6.24007H99.0472L98.5205 8.09406L96.8982 12.5183ZM116.995 14.7516H117.543C117.613 15.1448 117.676 15.6434 117.733 16.2474C117.789 16.8373 117.803 17.4132 117.775 17.975C117.564 18.1435 117.311 18.284 117.016 18.3963C116.721 18.4946 116.405 18.5789 116.068 18.6491C115.745 18.7194 115.408 18.7685 115.057 18.7966C114.72 18.8247 114.397 18.8388 114.088 18.8388C112.908 18.8388 111.855 18.6913 110.928 18.3963C110.001 18.0873 109.214 17.6238 108.568 17.0058C107.936 16.3878 107.444 15.6013 107.093 14.6462C106.756 13.6771 106.588 12.5324 106.588 11.2121C106.588 9.83568 106.777 8.66992 107.156 7.71483C107.536 6.7457 108.048 5.95916 108.694 5.35521C109.34 4.73722 110.092 4.28776 110.949 4.00686C111.805 3.72595 112.704 3.5855 113.645 3.5855C114.572 3.5855 115.352 3.6487 115.984 3.77511C116.616 3.88747 117.171 4.06304 117.648 4.30181C117.648 4.52654 117.641 4.7934 117.627 5.1024C117.613 5.39735 117.592 5.71337 117.564 6.05046C117.536 6.38755 117.501 6.71761 117.459 7.04065C117.417 7.3637 117.374 7.65865 117.332 7.92551H116.784L115.689 4.89172C115.534 4.80744 115.275 4.75126 114.909 4.72317C114.558 4.69508 114.207 4.68104 113.856 4.68104C113.154 4.68104 112.487 4.81447 111.855 5.08133C111.237 5.33414 110.689 5.73444 110.211 6.28221C109.748 6.81593 109.376 7.49713 109.095 8.3258C108.814 9.14044 108.673 10.1025 108.673 11.2121C108.673 12.2093 108.8 13.1153 109.053 13.9299C109.305 14.7305 109.671 15.4187 110.148 15.9946C110.626 16.5564 111.208 16.9918 111.897 17.3008C112.585 17.5957 113.364 17.7432 114.235 17.7432C114.699 17.7432 115.085 17.7081 115.394 17.6379C115.703 17.5676 115.907 17.4764 116.005 17.364L116.995 14.7516ZM127.996 18.5859H122.076V17.975C122.385 17.8626 122.694 17.7643 123.003 17.68C123.326 17.5957 123.67 17.5255 124.035 17.4693V4.93385H120.811L119.695 7.94658H119.168C119.126 7.66567 119.091 7.34965 119.063 6.99852C119.035 6.63334 119.007 6.26816 118.979 5.90298C118.964 5.52376 118.95 5.15858 118.936 4.80744C118.922 4.44226 118.915 4.11922 118.915 3.83831H131.156C131.156 4.11922 131.149 4.43524 131.135 4.78638C131.121 5.13751 131.1 5.50269 131.072 5.88191C131.058 6.24709 131.036 6.61227 131.008 6.97745C130.994 7.32858 130.966 7.65163 130.924 7.94658H130.376L129.281 4.93385H126.057V17.4693C126.423 17.5396 126.76 17.6098 127.069 17.68C127.392 17.7502 127.701 17.8486 127.996 17.975V18.5859ZM135.92 17.4693C136.299 17.5115 136.658 17.5817 136.995 17.68C137.332 17.7643 137.648 17.8626 137.943 17.975V18.5859H132.17V17.975C132.451 17.8345 132.739 17.7292 133.034 17.6589C133.329 17.5887 133.617 17.5255 133.898 17.4693V4.97599C133.575 4.91981 133.273 4.84958 132.992 4.76531C132.711 4.66699 132.437 4.56165 132.17 4.44929V3.83831H134.066C134.628 3.83831 135.239 3.81022 135.899 3.75404C136.559 3.69786 137.191 3.66977 137.795 3.66977C138.483 3.66977 139.158 3.74702 139.818 3.90152C140.478 4.04197 141.061 4.28776 141.566 4.6389C142.086 4.99003 142.5 5.46055 142.809 6.05046C143.132 6.62632 143.294 7.34965 143.294 8.22046C143.294 9.04914 143.132 9.75843 142.809 10.3483C142.486 10.9382 142.051 11.4228 141.503 11.802C140.969 12.1813 140.359 12.4622 139.67 12.6448C138.982 12.8133 138.273 12.8976 137.542 12.8976C137.472 12.8976 137.36 12.8976 137.205 12.8976C137.065 12.8976 136.91 12.8976 136.742 12.8976C136.573 12.8835 136.412 12.8695 136.257 12.8554C136.103 12.8414 135.99 12.8273 135.92 12.8133V17.4693ZM137.353 4.76531C137.016 4.76531 136.742 4.77233 136.531 4.78638C136.32 4.80042 136.117 4.82851 135.92 4.87065V11.6967C135.99 11.7248 136.089 11.7458 136.215 11.7599C136.356 11.7599 136.496 11.7669 136.636 11.781C136.791 11.795 136.938 11.802 137.079 11.802C137.219 11.802 137.332 11.802 137.416 11.802C137.908 11.802 138.371 11.7388 138.807 11.6124C139.242 11.472 139.621 11.2543 139.944 10.9593C140.281 10.6644 140.548 10.2922 140.745 9.8427C140.941 9.39325 141.04 8.85251 141.04 8.22046C141.04 7.06875 140.71 6.20496 140.05 5.6291C139.403 5.05324 138.505 4.76531 137.353 4.76531ZM144.917 11.2121C144.917 10.1166 145.065 9.10532 145.36 8.17833C145.669 7.23729 146.104 6.42968 146.666 5.7555C147.242 5.06728 147.944 4.53356 148.773 4.15433C149.601 3.77511 150.543 3.5855 151.596 3.5855C152.649 3.5855 153.59 3.77511 154.419 4.15433C155.248 4.53356 155.943 5.06728 156.505 5.7555C157.081 6.42968 157.516 7.23729 157.811 8.17833C158.12 9.10532 158.275 10.1166 158.275 11.2121C158.275 12.3077 158.12 13.326 157.811 14.267C157.516 15.194 157.081 16.0016 156.505 16.6898C155.943 17.364 155.248 17.8907 154.419 18.2699C153.59 18.6491 152.649 18.8388 151.596 18.8388C150.543 18.8388 149.601 18.6491 148.773 18.2699C147.944 17.8907 147.242 17.364 146.666 16.6898C146.104 16.0016 145.669 15.194 145.36 14.267C145.065 13.326 144.917 12.3077 144.917 11.2121ZM147.172 11.2121C147.172 12.111 147.263 12.9608 147.446 13.7614C147.642 14.5479 147.93 15.2361 148.309 15.826C148.689 16.4159 149.166 16.8864 149.742 17.2376C150.318 17.5747 150.999 17.7432 151.786 17.7432C152.502 17.7432 153.127 17.5747 153.661 17.2376C154.194 16.8864 154.63 16.4159 154.967 15.826C155.318 15.2361 155.578 14.5479 155.746 13.7614C155.929 12.9608 156.02 12.111 156.02 11.2121C156.02 10.3132 155.929 9.4705 155.746 8.68396C155.564 7.88338 155.283 7.18813 154.904 6.59823C154.524 6.00832 154.047 5.54482 153.471 5.20774C152.895 4.8566 152.214 4.68104 151.427 4.68104C150.655 4.68104 149.995 4.8566 149.447 5.20774C148.913 5.54482 148.478 6.00832 148.141 6.59823C147.804 7.18813 147.558 7.88338 147.403 8.68396C147.249 9.4705 147.172 10.3132 147.172 11.2121ZM165.337 18.5859H160.007V17.975C160.569 17.7221 161.145 17.5536 161.735 17.4693V4.97599C161.454 4.90576 161.166 4.82851 160.871 4.74424C160.576 4.65997 160.288 4.56165 160.007 4.44929V3.83831H165.337V4.44929C165.113 4.56165 164.874 4.65997 164.621 4.74424C164.368 4.82851 164.08 4.90576 163.757 4.97599V14.1195L163.525 15.6996L164.537 14.0352L170.71 5.48162V4.97599C170.387 4.90576 170.078 4.82851 169.783 4.74424C169.502 4.64592 169.242 4.5476 169.003 4.44929V3.83831H174.354V4.44929C174.102 4.56165 173.828 4.65997 173.533 4.74424C173.238 4.82851 172.936 4.90576 172.627 4.97599V17.4693C173.287 17.5817 173.863 17.7502 174.354 17.975V18.5859H169.003V17.975C169.228 17.8766 169.474 17.7854 169.74 17.7011C170.007 17.6028 170.295 17.5255 170.604 17.4693V8.34687L170.815 6.76677L169.888 8.34687L163.631 17.0058V17.4693C163.954 17.5255 164.256 17.5957 164.537 17.68C164.832 17.7643 165.098 17.8626 165.337 17.975V18.5859ZM184.451 18.5859H178.531V17.975C178.84 17.8626 179.149 17.7643 179.458 17.68C179.781 17.5957 180.125 17.5255 180.491 17.4693V4.93385H177.267L176.151 7.94658H175.624C175.582 7.66567 175.547 7.34965 175.519 6.99852C175.49 6.63334 175.462 6.26816 175.434 5.90298C175.42 5.52376 175.406 5.15858 175.392 4.80744C175.378 4.44226 175.371 4.11922 175.371 3.83831H187.612C187.612 4.11922 187.605 4.43524 187.591 4.78638C187.576 5.13751 187.555 5.50269 187.527 5.88191C187.513 6.24709 187.492 6.61227 187.464 6.97745C187.45 7.32858 187.422 7.65163 187.38 7.94658H186.832L185.737 4.93385H182.513V17.4693C182.878 17.5396 183.215 17.6098 183.524 17.68C183.847 17.7502 184.156 17.8486 184.451 17.975V18.5859ZM198.612 3.83831C198.598 4.40013 198.57 4.96896 198.528 5.54482C198.5 6.10664 198.451 6.67547 198.38 7.25133H197.833L196.969 4.93385H192.376V10.5169H195.81L196.632 8.95785H197.158C197.243 10.3483 197.243 11.7669 197.158 13.2136H196.632L195.81 11.6124H192.376V17.4904H197.222L198.254 14.9622H198.781C198.879 15.5521 198.949 16.1491 198.991 16.753C199.033 17.357 199.04 17.9679 199.012 18.5859H188.626V17.975C189.117 17.7502 189.693 17.5817 190.353 17.4693V4.97599C190.072 4.91981 189.785 4.84958 189.49 4.76531C189.195 4.66699 188.907 4.56165 188.626 4.44929V3.83831H198.612ZM204.533 5.08133C203.662 4.94087 202.946 4.73019 202.384 4.44929V3.83831H213.466V4.44929C212.974 4.7021 212.398 4.87767 211.738 4.97599V17.4693C212.398 17.5817 212.974 17.7502 213.466 17.975V18.5859H208.114V17.975C208.367 17.8626 208.627 17.7713 208.894 17.7011C209.161 17.6168 209.435 17.5396 209.716 17.4693V4.93385H205.776C205.72 7.13897 205.614 8.97189 205.46 10.4326C205.319 11.8793 205.137 13.0802 204.912 14.0352C204.687 14.9763 204.427 15.7277 204.133 16.2895C203.852 16.8513 203.543 17.3499 203.206 17.7854C202.925 18.1505 202.581 18.4174 202.173 18.5859C201.766 18.7545 201.373 18.8388 200.993 18.8388C200.895 18.7264 200.79 18.5719 200.677 18.3753C200.579 18.1646 200.481 17.9469 200.382 17.7221C200.298 17.4834 200.228 17.2516 200.172 17.0269C200.116 16.7881 200.08 16.5775 200.066 16.3949L200.382 15.8682L202.805 16.3106C203.016 15.9595 203.22 15.496 203.416 14.9201C203.627 14.3442 203.809 13.6139 203.964 12.729C204.133 11.8301 204.266 10.7557 204.364 9.50561C204.477 8.25558 204.533 6.78082 204.533 5.08133ZM224.68 3.83831C224.666 4.40013 224.637 4.96896 224.595 5.54482C224.567 6.10664 224.518 6.67547 224.448 7.25133H223.9L223.036 4.93385H218.443V10.5169H221.878L222.699 8.95785H223.226C223.31 10.3483 223.31 11.7669 223.226 13.2136H222.699L221.878 11.6124H218.443V17.4904H223.289L224.321 14.9622H224.848C224.946 15.5521 225.017 16.1491 225.059 16.753C225.101 17.357 225.108 17.9679 225.08 18.5859H214.693V17.975C215.185 17.7502 215.761 17.5817 216.421 17.4693V4.97599C216.14 4.91981 215.852 4.84958 215.557 4.76531C215.262 4.66699 214.974 4.56165 214.693 4.44929V3.83831H224.68ZM232.286 18.5859H226.956V17.975C227.517 17.7221 228.093 17.5536 228.683 17.4693V4.97599C228.402 4.90576 228.114 4.82851 227.819 4.74424C227.524 4.65997 227.237 4.56165 226.956 4.44929V3.83831H232.286V4.44929C232.061 4.56165 231.822 4.65997 231.57 4.74424C231.317 4.82851 231.029 4.90576 230.706 4.97599V14.1195L230.474 15.6996L231.485 14.0352L237.658 5.48162V4.97599C237.335 4.90576 237.026 4.82851 236.731 4.74424C236.45 4.64592 236.19 4.5476 235.952 4.44929V3.83831H241.303V4.44929C241.05 4.56165 240.776 4.65997 240.481 4.74424C240.186 4.82851 239.884 4.90576 239.575 4.97599V17.4693C240.236 17.5817 240.811 17.7502 241.303 17.975V18.5859H235.952V17.975C236.176 17.8766 236.422 17.7854 236.689 17.7011C236.956 17.6028 237.244 17.5255 237.553 17.4693V8.34687L237.764 6.76677L236.837 8.34687L230.579 17.0058V17.4693C230.902 17.5255 231.204 17.5957 231.485 17.68C231.78 17.7643 232.047 17.8626 232.286 17.975V18.5859ZM234.245 3.16414C232.953 3.16414 232.005 2.91132 231.401 2.40569C230.811 1.88601 230.516 1.24695 230.516 0.488496C230.671 0.333997 230.895 0.221634 231.19 0.151407C231.499 0.0811805 231.801 0.0390445 232.096 0.0249994L232.623 0.298884V2.08967C232.82 2.18798 233.058 2.26523 233.339 2.32142C233.634 2.36355 233.943 2.38462 234.266 2.38462C234.505 2.38462 234.786 2.36355 235.109 2.32142C235.446 2.27928 235.713 2.2231 235.91 2.15287V0.298884L236.436 0.0249994C236.647 0.0109542 236.9 0.0530901 237.195 0.151407C237.504 0.23568 237.749 0.348043 237.932 0.488496C237.932 0.867721 237.862 1.21886 237.721 1.5419C237.581 1.86494 237.363 2.14585 237.068 2.38462C236.773 2.62339 236.394 2.813 235.931 2.95346C235.467 3.09391 234.905 3.16414 234.245 3.16414ZM243.542 17.3851L243.036 16.9637L245.396 13.0872L243.141 9.21066L243.668 8.81037L247.25 13.1293L243.542 17.3851ZM246.723 17.4272L246.175 16.9848L249.23 13.1082L246.28 9.18959L246.828 8.76823L251.316 13.1293L246.723 17.4272Z" fill="white"/>
</svg>
