<svg width="80" height="114" viewBox="0 0 80 114" fill="none" xmlns="http://www.w3.org/2000/svg">
<path d="M8.49645 30.273C-5.87486 54.6836 5.92041 74.2196 9.8589 79.6214C5.04239 88.4824 1.33098 98.2239 0.0341275 108.46C-0.26107 110.791 1.39153 112.921 3.72284 113.216C3.9045 113.241 4.08363 113.251 4.26277 113.251C6.37456 113.251 8.20882 111.679 8.48131 109.53C13.0808 73.1978 53.1949 41.8059 53.5986 41.4931C55.458 40.0549 55.8012 37.3805 54.3656 35.521C52.9274 33.6615 50.2555 33.3133 48.396 34.7515C47.2278 35.6522 28.59 50.2279 14.6805 71.5552C10.969 65.1896 5.84472 51.56 15.8335 34.5925C22.0528 24.0209 31.7388 22.3406 42.9563 20.3928C51.189 18.9672 60.3124 17.3828 68.5123 11.8447C71.1439 24.4372 75.1757 52.6323 63.1054 69.229C57.0854 77.5071 47.5256 81.9124 34.6908 82.3186C32.3418 82.3918 30.495 84.3547 30.5706 86.7037C30.6438 89.0097 32.5336 90.8289 34.8245 90.8289H34.9608C50.5709 90.3369 62.3586 84.7483 70.006 74.2221C88.2527 49.0975 75.7056 4.93654 75.1631 3.06696C74.7417 1.62882 73.5963 0.511106 72.1455 0.135171C70.6872 -0.238241 69.1481 0.173015 68.0809 1.2327C60.5269 8.70598 51.2874 10.3106 41.5005 12.0061C29.3167 14.1179 16.7166 16.3029 8.49645 30.273Z" fill="white" fill-opacity="0.3"/>
</svg>
