<svg width="171" height="168" viewBox="0 0 171 168" fill="none" xmlns="http://www.w3.org/2000/svg">
<path d="M0.00596619 59.7505C0.0917206 57.7835 1.18767 54.1371 7.56282 51.8169L177.531 -9.98534C186.243 -13.1555 195.912 -8.6481 199.083 0.0648355L203.684 12.7054C203.684 12.7054 203.685 12.7067 203.685 12.7075L214.037 41.1479C217.207 49.8613 212.699 59.5294 203.985 62.7012L154.448 80.7101C155.39 86.4358 153.819 92.0929 150.402 96.4208L160.954 125.412C161.44 126.746 162.721 127.643 164.143 127.643H195.059V117.554C195.059 111.991 199.585 107.464 205.148 107.464H211.874C213.732 107.464 215.238 108.97 215.238 110.827V164.637C215.238 166.494 213.732 168 211.874 168H205.148C199.585 168 195.059 163.474 195.059 157.911V147.821H164.143C154.268 147.821 145.367 141.588 141.993 132.311L131.662 103.929C125.75 103.099 120.378 99.6473 117.189 94.2562L59.3002 115.302C57.4081 115.99 55.4718 116.317 53.5657 116.317C47.785 116.316 42.2922 113.312 39.2162 108.296L32.5733 110.714C31.8229 110.986 31.0452 111.123 30.2696 111.123C29.3014 111.123 28.3366 110.911 27.4332 110.489C25.8059 109.731 24.5717 108.383 23.9579 106.697L14.7527 81.4054C13.6332 78.3295 14.9108 74.9584 17.6235 73.3391L6.84229 68.3121C0.69371 65.445 -0.0798035 61.7175 0.00596619 59.7505ZM201.785 157.911C201.785 159.765 203.294 161.274 205.148 161.274H208.511V114.191H205.148C203.294 114.191 201.785 115.699 201.785 117.554V157.911ZM148.313 130.011C150.725 136.641 157.086 141.095 164.143 141.095H195.059V134.369H164.143C159.904 134.369 156.083 131.694 154.634 127.713L144.98 101.189C143.872 101.854 142.685 102.426 141.425 102.884C140.53 103.21 139.628 103.468 138.723 103.663L148.313 130.011ZM134.059 97.3826C134.137 97.3822 134.214 97.3822 134.292 97.3868C135.893 97.4083 137.527 97.1451 139.124 96.5637C140.994 95.8831 142.624 94.8359 143.96 93.5315C144.082 93.3827 144.218 93.2448 144.366 93.1182C146.871 90.4505 148.212 86.8288 147.958 83.0697L123.677 91.897C126.134 95.271 129.98 97.2569 134.059 97.3826ZM21.0724 79.1051L30.2717 104.393L36.5968 102.091L27.8713 78.118L26.0851 77.2852L21.0724 79.1051ZM9.68408 62.216L27.6628 70.5994C27.6649 70.6002 27.6665 70.6011 27.6682 70.6019L31.9738 72.6097C31.9755 72.6105 31.9768 72.6109 31.9785 72.6118L37.0265 74.9655C42.9505 77.7279 53.1453 78.1727 59.2893 75.9366L156.571 40.5901C158.316 39.9566 160.246 40.857 160.88 42.6025C161.514 44.3484 160.613 46.2775 158.867 46.9123L61.588 82.258C58.203 83.4901 54.0307 84.09 49.773 84.09C45.118 84.09 40.3652 83.369 36.4316 81.9729L44.0667 102.951C45.9693 108.179 51.7707 110.883 56.9994 108.98L201.686 56.3802C206.914 54.4776 209.619 48.6767 207.716 43.4487L201.962 27.6388C200.043 30.5891 197.189 32.9647 193.634 34.2587L190.473 35.4088C188.729 36.0445 186.798 35.144 186.162 33.3985C185.527 31.6535 186.427 29.7235 188.173 29.0883L191.334 27.9381C196.561 26.0355 199.266 20.2358 197.364 15.0083L196.213 11.8457C196.213 11.8457 196.213 11.8449 196.213 11.8445L192.763 2.36519C190.86 -2.86274 185.059 -5.56876 179.83 -3.66483L9.86234 58.1379C7.70323 58.9236 6.9045 59.7425 6.74223 60.0443C6.87759 60.3596 7.60149 61.2445 9.68408 62.216Z" fill="white" fill-opacity="0.3"/>
</svg>
