<svg width="199" height="146" viewBox="0 0 199 146" fill="none" xmlns="http://www.w3.org/2000/svg">
<path d="M196.085 149.55H192.769V136.887C192.769 133.562 190.064 130.856 186.738 130.856H186.538V111.962C186.538 108.636 183.832 105.931 180.507 105.931H133.571V88.2444L142.065 79.7512C143.203 78.6127 143.203 76.7673 142.065 75.6289C140.926 74.4905 139.08 74.4905 137.942 75.6289L133.572 79.9995V68.3432C133.572 66.7334 132.267 65.4282 130.657 65.4282C129.047 65.4282 127.742 66.7334 127.742 68.3432V93.3286C111.814 91.8528 99.2998 78.4192 99.2998 62.1121C99.2998 44.822 113.367 30.7552 130.657 30.7552C147.947 30.7552 162.014 44.8216 162.014 62.1121C162.014 68.5489 160.079 74.7326 156.419 79.9949C152.839 85.1413 147.874 89.0618 142.06 91.3324C140.56 91.9181 139.819 93.6085 140.405 95.1084C140.99 96.6079 142.68 97.3487 144.181 96.7633C151.076 94.0702 156.962 89.4233 161.205 83.3242C165.548 77.0802 167.844 69.7452 167.844 62.1125C167.844 41.6077 151.162 24.9255 130.657 24.9255C110.152 24.9255 93.4698 41.6073 93.4698 62.1125C93.4698 81.6366 108.594 97.6942 127.742 99.1859V105.932H93.2692C89.9437 105.932 87.2386 108.637 87.2386 111.963V130.857H87.038C83.7125 130.857 81.0074 133.563 81.0074 136.888V149.551H74.143C72.7407 140.734 65.087 133.973 55.8817 133.973C54.7425 133.973 53.587 134.087 52.4474 134.313C51.6522 134.471 50.6917 134.161 49.8806 133.484C48.7674 132.553 47.5797 131.729 46.334 131.015V111.656C67.2014 110.157 83.7219 92.7017 83.7219 71.4592C83.7219 64.5191 81.9149 57.6684 78.4966 51.6482C76.6309 48.362 76.0561 44.574 76.8338 40.6927C77.3803 37.9674 77.5871 35.1717 77.4483 32.3829C77.0239 23.8318 73.3159 15.7641 67.0078 9.66546C60.6985 3.56564 52.5096 0.134446 43.9499 0.00424068C34.7519 -0.138791 26.0659 3.3406 19.5121 9.79527C12.9572 16.2507 9.34756 24.8726 9.34756 34.0717C9.34756 36.5553 9.62352 39.0421 10.168 41.4635C10.9186 44.801 10.4409 48.1249 8.82324 50.8231C4.73713 57.6388 2.78017 65.4577 3.16379 73.4341C3.93336 89.4384 14.7042 103.897 29.9658 109.412C31.4801 109.959 33.1506 109.175 33.6982 107.661C34.2455 106.147 33.4615 104.476 31.9473 103.929C18.872 99.2034 9.64528 86.8359 8.98687 73.1538C8.65883 66.3307 10.3309 59.6456 13.8231 53.8205C16.2142 49.8324 16.936 44.9895 15.8555 40.1847C15.4054 38.1823 15.1769 36.1259 15.1769 34.0717C15.1769 26.4468 18.1692 19.3002 23.6025 13.9494C29.0346 8.59972 36.2223 5.72277 43.8605 5.83393C58.4461 6.05664 70.9011 18.0961 71.6248 32.6725C71.7395 34.9804 71.5685 37.2938 71.1168 39.5473C70.074 44.7485 70.8941 50.0683 73.4259 54.5275C76.3468 59.6716 77.891 65.5269 77.891 71.4596C77.891 89.4858 63.982 104.323 46.3332 105.808V77.69C46.3332 76.0802 45.028 74.775 43.4181 74.775C41.8083 74.775 40.5031 76.0802 40.5031 77.69V128.601C38.4179 128.035 36.2553 127.741 34.0714 127.741C21.4251 127.741 10.9722 137.287 9.5244 149.55H2.91504C1.30516 149.55 0 150.855 0 152.465C0 154.075 1.30516 155.38 2.91504 155.38H196.085C197.695 155.38 199 154.075 199 152.465C199 150.856 197.695 149.55 196.085 149.55ZM186.939 136.887V149.55H133.571V136.687H186.738C186.849 136.687 186.939 136.777 186.939 136.887ZM133.571 130.856V124.224H180.707V130.856H133.571ZM93.2688 111.761H180.507C180.618 111.761 180.708 111.851 180.708 111.962V118.394H93.0683V111.962C93.0683 111.852 93.158 111.761 93.2688 111.761ZM93.0683 124.224H127.741V130.856H93.0683V124.224ZM86.8367 136.887C86.8367 136.777 86.9265 136.687 87.0372 136.687H127.741V149.55H86.8367V136.887ZM53.58 140.031C54.3472 139.879 55.1214 139.803 55.8809 139.803C61.8599 139.803 66.8811 143.969 68.2014 149.55H46.3332V138.109C48.4814 139.819 51.108 140.522 53.58 140.031ZM34.0714 133.571C36.2767 133.571 38.4536 133.963 40.5031 134.71V149.551H15.4027C16.8085 140.511 24.6441 133.571 34.0714 133.571Z" fill="white" fill-opacity="0.3"/>
</svg>
